<svg xmlns="http://www.w3.org/2000/svg" width="517.94" height="271.5" viewBox="0 0 517.94 271.5">
  <g id="그룹_337" data-name="그룹 337" transform="translate(-1712 -153)">
    <g id="그룹_336" data-name="그룹 336">
      <g id="그룹_334" data-name="그룹 334">
        <g id="login" transform="translate(1712.75 297.5)">
          <path id="패스_265" data-name="패스 265" d="M12.1,3.25a.854.854,0,0,0,0,1.707,8.251,8.251,0,0,1,0,16.5.854.854,0,0,0,0,1.707,9.958,9.958,0,0,0,0-19.917Z" transform="translate(1.105 0)" fill="#fff"/>
          <path id="패스_266" data-name="패스 266" d="M11.467,9.707A.854.854,0,1,1,12.674,8.5l3.414,3.414a.853.853,0,0,1,0,1.207l-3.414,3.414a.854.854,0,0,1-1.207-1.207l1.957-1.957H4.1a.854.854,0,1,1,0-1.707h9.32Z" transform="translate(0 0.69)" fill="#fff"/>
        </g>
        <g id="add-user" transform="translate(1717.208 407)">
          <g id="그룹_300" data-name="그룹 300" transform="translate(0)">
            <g id="그룹_299" data-name="그룹 299" transform="translate(0)">
              <path id="패스_267" data-name="패스 267" d="M12.564,8.781a8.894,8.894,0,0,0-1.029-.413,4.648,4.648,0,1,0-5.566,0A8.891,8.891,0,0,0,.045,15a2.077,2.077,0,0,0,2.03,2.5h8.419a.684.684,0,0,0,0-1.367H2.075a.7.7,0,0,1-.547-.26.714.714,0,0,1-.145-.6A7.553,7.553,0,0,1,8.569,9.293q.09,0,.181,0t.183,0a7.446,7.446,0,0,1,3.044.723.684.684,0,0,0,.587-1.235ZM8.917,7.926l-.167,0-.165,0a3.281,3.281,0,1,1,.332,0Z" transform="translate(0)" fill="#8e8e8e"/>
            </g>
          </g>
          <g id="그룹_302" data-name="그룹 302" transform="translate(11.006 11.006)">
            <g id="그룹_301" data-name="그룹 301">
              <path id="패스_268" data-name="패스 268" d="M327.811,324.564h-1.88v-1.88a.684.684,0,1,0-1.367,0v1.88h-1.88a.684.684,0,1,0,0,1.367h1.88v1.88a.684.684,0,0,0,1.367,0v-1.88h1.88a.684.684,0,0,0,0-1.367Z" transform="translate(-322 -322)" fill="#8e8e8e"/>
            </g>
          </g>
        </g>
        <g id="mago-logo2" transform="translate(1501.97 -223.2)">
          <g id="레이어_1" transform="translate(210.03 376.2)">
            <g id="그룹_313" data-name="그룹 313" transform="translate(0 0.943)">
              <g id="그룹_312" data-name="그룹 312" transform="translate(3.511 24.214)" opacity="0.78">
                <g id="LOGO1">
                  <path id="패스_269" data-name="패스 269" d="M228.255,415.827l15.146-8.749-15.146-8.738-15.135,8.738Z" transform="translate(-213.12 -398.34)" fill="#cbcbcb" opacity="0.8"/>
                </g>
              </g>
              <g id="LOGO1-2" data-name="LOGO1">
                <path id="패스_270" data-name="패스 270" d="M244.665,403.255V385.768L229.53,377.03v17.476Z" transform="translate(-207.373 -377.03)" fill="#eb6437" opacity="0.84"/>
                <path id="패스_271" data-name="패스 271" d="M210.03,403.255V385.768l15.146-8.738v17.476Z" transform="translate(-210.03 -377.03)" fill="#2a237f" opacity="0.79"/>
                <path id="패스_272" data-name="패스 272" d="M228.255,394.867l15.146-8.749-15.146-8.738-15.135,8.738Z" transform="translate(-209.609 -376.982)" fill="#30bbea" opacity="0.85"/>
                <path id="패스_273" data-name="패스 273" d="M228,395.868l15.146-8.738v17.487L228,413.355Z" transform="translate(-207.581 -375.654)" fill="#00aa80" opacity="0.75"/>
                <path id="패스_274" data-name="패스 274" d="M226.7,395.868,211.55,387.13v17.487l15.146,8.738Z" transform="translate(-209.823 -375.654)" fill="#053893" opacity="0.81"/>
              </g>
            </g>
            <g id="그룹_314" data-name="그룹 314" transform="translate(49.041 8.613)">
              <path id="패스_275" data-name="패스 275" d="M278.222,411.775V399.037a3.346,3.346,0,0,0-.67-2.25,2.8,2.8,0,0,0-2.216-.773h-3.772v15.76h-5.943v-15.76h-6.488v15.76H253.19v-20.8h24.134q3.528,0,5.17,1.784a7.475,7.475,0,0,1,1.636,5.215v13.805h-5.909Z" transform="translate(-253.19 -382.8)" fill="#2a237f"/>
              <path id="패스_276" data-name="패스 276" d="M282.68,403.332a4.422,4.422,0,0,1,1.25-3.352,5.258,5.258,0,0,1,3.727-1.182h9.51v-1.545a1.961,1.961,0,0,0-.4-1.352,1.682,1.682,0,0,0-1.284-.432H283.612v-4.5H297a9.293,9.293,0,0,1,2.92.4,4.222,4.222,0,0,1,1.875,1.2,4.66,4.66,0,0,1,1,2.011,11.954,11.954,0,0,1,.3,2.784v14.419H287.668a5.277,5.277,0,0,1-3.727-1.182,4.38,4.38,0,0,1-1.25-3.352v-3.909Zm5.943,1.716c0,.454.011.829.034,1.114a1.337,1.337,0,0,0,.2.67.931.931,0,0,0,.511.341,3.679,3.679,0,0,0,1,.1h6.795V403.3h-6.795c-.739,0-1.2.148-1.42.443A2.216,2.216,0,0,0,288.623,405.048Z" transform="translate(-249.172 -382.8)" fill="#2a237f"/>
              <path id="패스_277" data-name="패스 277" d="M303.2,398.7a14.4,14.4,0,0,1,.341-3.3,5.85,5.85,0,0,1,1.148-2.42,5.132,5.132,0,0,1,2.091-1.488,8.75,8.75,0,0,1,3.216-.511h13.7v23.827a6.627,6.627,0,0,1-1.454,4.67c-.977,1.034-2.557,1.545-4.75,1.545H304.927v-4.875h10.579a2.286,2.286,0,0,0,1.773-.6,2.6,2.6,0,0,0,.534-1.773v-1.988h-7.795c-2.363,0-4.079-.591-5.17-1.784a7.475,7.475,0,0,1-1.636-5.215v-6.079Zm14.59,8.067V396.014H312.2a2.587,2.587,0,0,0-3.057,3.011v4.67a2.587,2.587,0,0,0,3.057,3.057h5.59Z" transform="translate(-246.376 -382.799)" fill="#2a237f"/>
              <path id="패스_278" data-name="패스 278" d="M334.993,412.158a21.439,21.439,0,0,1-4.943-.5,7.98,7.98,0,0,1-3.4-1.636,6.689,6.689,0,0,1-1.977-2.932,13.1,13.1,0,0,1-.636-4.409V400.17a13.194,13.194,0,0,1,.648-4.4,6.815,6.815,0,0,1,1.988-2.954,8.194,8.194,0,0,1,3.4-1.648,23.814,23.814,0,0,1,9.817,0,8.263,8.263,0,0,1,3.4,1.648,6.634,6.634,0,0,1,1.977,2.954,13.513,13.513,0,0,1,.636,4.4v2.511a13.394,13.394,0,0,1-.636,4.409,6.532,6.532,0,0,1-1.977,2.932,8.181,8.181,0,0,1-3.4,1.636,21.266,21.266,0,0,1-4.909.5Zm0-4.84a10.507,10.507,0,0,0,2.216-.2,3.168,3.168,0,0,0,2.5-2.25,7.944,7.944,0,0,0,.307-2.42v-2.057a9.363,9.363,0,0,0-.239-2.3,3.2,3.2,0,0,0-.807-1.488,3.444,3.444,0,0,0-1.523-.829,9.663,9.663,0,0,0-2.443-.261,9.565,9.565,0,0,0-2.432.261,3.235,3.235,0,0,0-1.523.829,3.2,3.2,0,0,0-.807,1.488,9.364,9.364,0,0,0-.239,2.3v2.057a7.943,7.943,0,0,0,.307,2.42,3.25,3.25,0,0,0,.932,1.488,3.558,3.558,0,0,0,1.568.761,10.508,10.508,0,0,0,2.216.2Z" transform="translate(-243.536 -382.842)" fill="#2a237f"/>
              <path id="패스_279" data-name="패스 279" d="M345.71,407.846h10.954c2.148,0,3.227-1.023,3.227-3.057v-1.307a2.763,2.763,0,0,0-.784-2.216,3.733,3.733,0,0,0-2.443-.67h-8.545v-4.909h7.795c2.193,0,3.3-1.045,3.3-3.125V391.7a3.076,3.076,0,0,0-.739-2.329,3.441,3.441,0,0,0-2.386-.682H346.062V383.78H358.22c2.409,0,4.147.523,5.215,1.579s1.614,2.807,1.614,5.25v2.92a5.1,5.1,0,0,1-.841,2.966,4.039,4.039,0,0,1-2.284,1.636,4.091,4.091,0,0,1,2.784,1.454,4.774,4.774,0,0,1,1.034,3.1v3.568q0,6.494-6.863,6.488H345.733v-4.909Z" transform="translate(-240.584 -383.78)" fill="#41419e"/>
              <path id="패스_280" data-name="패스 280" d="M365.89,412.755V383.78h13.283a15.812,15.812,0,0,1,4.579.58,7.258,7.258,0,0,1,3.091,1.784,7.331,7.331,0,0,1,1.738,3.091,15.938,15.938,0,0,1,.545,4.5v9.1a16.134,16.134,0,0,1-.545,4.477,7.23,7.23,0,0,1-1.738,3.091,7.034,7.034,0,0,1-3.091,1.784,16.3,16.3,0,0,1-4.579.568H365.89Zm12.635-5.045a4.862,4.862,0,0,0,3.568-1.114,5.331,5.331,0,0,0,1.1-3.8v-9.033a5.366,5.366,0,0,0-1.079-3.806,4.918,4.918,0,0,0-3.591-1.1h-6.658v18.85h6.658Z" transform="translate(-237.834 -383.78)" fill="#41419e"/>
            </g>
            <g id="그룹_315" data-name="그룹 315" transform="translate(48.825)">
              <path id="패스_281" data-name="패스 281" d="M253,383.534v-6.7h2.886a3.919,3.919,0,0,1,1.863.42,3.067,3.067,0,0,1,1.261,1.17,3.64,3.64,0,0,1,0,3.522,3.062,3.062,0,0,1-1.261,1.17,4.126,4.126,0,0,1-1.863.42H253Zm1.227-1.057h1.591a2.677,2.677,0,0,0,1.284-.284,2.16,2.16,0,0,0,.852-.807,2.316,2.316,0,0,0,.307-1.2,2.358,2.358,0,0,0-.307-1.216,2.132,2.132,0,0,0-.852-.8,2.677,2.677,0,0,0-1.284-.284h-1.591v4.6Z" transform="translate(-253 -376.114)" fill="#a5a5a5"/>
              <path id="패스_282" data-name="패스 282" d="M260.351,377.654a.738.738,0,0,1-.761-.739.672.672,0,0,1,.216-.5.745.745,0,0,1,.545-.216.8.8,0,0,1,.545.193.623.623,0,0,1,.216.5.739.739,0,0,1-.2.523.7.7,0,0,1-.545.216Zm-.579,5.965v-5.113h1.17v5.113Z" transform="translate(-252.102 -376.2)" fill="#a5a5a5"/>
              <path id="패스_283" data-name="패스 283" d="M264.3,383.113a2.693,2.693,0,0,1-1.3-.307,2.372,2.372,0,0,1-.909-.864,2.443,2.443,0,0,1-.329-1.3,2.6,2.6,0,0,1,.329-1.307,2.292,2.292,0,0,1,.909-.864,2.725,2.725,0,0,1,1.3-.307,2.51,2.51,0,0,1,1.148.261,1.929,1.929,0,0,1,.818.807,2.845,2.845,0,0,1,.307,1.409,2.754,2.754,0,0,1-.307,1.386,2.025,2.025,0,0,1-.818.818,2.411,2.411,0,0,1-1.148.273Zm.159,2.159a4.993,4.993,0,0,1-1.364-.182,2.912,2.912,0,0,1-1.091-.557l.523-.886a2.866,2.866,0,0,0,.829.455,3.184,3.184,0,0,0,1.034.17,1.633,1.633,0,0,0,1.2-.386,1.581,1.581,0,0,0,.386-1.17v-.909l.091-1.148-.034-1.159v-1.25h1.125v4.341a2.745,2.745,0,0,1-.693,2.045,2.857,2.857,0,0,1-2.011.659Zm.023-3.17a1.674,1.674,0,0,0,.8-.182,1.417,1.417,0,0,0,.545-.523,1.473,1.473,0,0,0,.193-.75,1.515,1.515,0,0,0-.193-.761,1.32,1.32,0,0,0-.545-.511,1.831,1.831,0,0,0-1.591,0,1.32,1.32,0,0,0-.545.511,1.515,1.515,0,0,0-.193.761,1.472,1.472,0,0,0,.193.75,1.345,1.345,0,0,0,.545.523A1.675,1.675,0,0,0,264.486,382.1Z" transform="translate(-251.805 -375.932)" fill="#a5a5a5"/>
              <path id="패스_284" data-name="패스 284" d="M268.491,377.654a.738.738,0,0,1-.761-.739.672.672,0,0,1,.216-.5.745.745,0,0,1,.545-.216.8.8,0,0,1,.545.193.623.623,0,0,1,.216.5.739.739,0,0,1-.2.523.7.7,0,0,1-.545.216Zm-.591,5.965v-5.113h1.17v5.113Z" transform="translate(-250.993 -376.2)" fill="#a5a5a5"/>
              <path id="패스_285" data-name="패스 285" d="M269.68,379.356V378.4h3.352v.954Zm2.557,4.181a1.76,1.76,0,0,1-1.273-.432,1.713,1.713,0,0,1-.454-1.284v-4.6h1.17v4.556a.768.768,0,0,0,.193.568.7.7,0,0,0,.523.2.92.92,0,0,0,.636-.216l.341.852a1.507,1.507,0,0,1-.523.261A2.291,2.291,0,0,1,272.237,383.538Z" transform="translate(-250.727 -376.061)" fill="#a5a5a5"/>
              <path id="패스_286" data-name="패스 286" d="M275.335,383.408a2.434,2.434,0,0,1-.989-.193,1.489,1.489,0,0,1-.659-.545,1.384,1.384,0,0,1-.227-.8,1.453,1.453,0,0,1,.2-.773,1.393,1.393,0,0,1,.659-.545,3.066,3.066,0,0,1,1.227-.2h1.454v.8H275.63a1.265,1.265,0,0,0-.807.193.615.615,0,0,0-.216.489.64.64,0,0,0,.25.511,1.178,1.178,0,0,0,.7.193,1.453,1.453,0,0,0,.773-.2,1.167,1.167,0,0,0,.5-.591l.193.716a1.4,1.4,0,0,1-.6.7,2.156,2.156,0,0,1-1.114.25Zm1.579-.057v-1.045l-.057-.216v-1.807a1.038,1.038,0,0,0-.318-.818,1.351,1.351,0,0,0-.954-.3,2.574,2.574,0,0,0-.818.136,2.133,2.133,0,0,0-.693.375l-.466-.875a2.747,2.747,0,0,1,.966-.477,3.965,3.965,0,0,1,1.159-.159,2.459,2.459,0,0,1,1.693.534,2.1,2.1,0,0,1,.591,1.648v3H276.9Z" transform="translate(-250.212 -375.932)" fill="#a5a5a5"/>
              <path id="패스_287" data-name="패스 287" d="M278.81,383.582v-7.1h1.17v7.1Z" transform="translate(-249.483 -376.162)" fill="#a5a5a5"/>
              <path id="패스_288" data-name="패스 288" d="M285.012,383.534v-5.647H282.83V376.83h5.59v1.057h-2.182v5.647Z" transform="translate(-248.936 -376.114)" fill="#a5a5a5"/>
              <path id="패스_289" data-name="패스 289" d="M289.381,383.343l-1.841-5.113h1.114l1.591,4.511h-.534l1.659-4.511h.989l1.613,4.511h-.523l1.625-4.511h1.045l-1.852,5.113h-1.125l-1.454-3.988h.341l-1.5,3.988H289.4Z" transform="translate(-248.294 -375.923)" fill="#a5a5a5"/>
              <path id="패스_290" data-name="패스 290" d="M296.4,377.654a.738.738,0,0,1-.761-.739.672.672,0,0,1,.216-.5.745.745,0,0,1,.545-.216.8.8,0,0,1,.545.193.623.623,0,0,1,.216.5.739.739,0,0,1-.2.523.7.7,0,0,1-.545.216Zm-.58,5.965v-5.113h1.17v5.113Z" transform="translate(-247.19 -376.2)" fill="#a5a5a5"/>
              <path id="패스_291" data-name="패스 291" d="M301.032,378.17a2.359,2.359,0,0,1,1.079.239,1.717,1.717,0,0,1,.739.739,2.64,2.64,0,0,1,.273,1.273v2.932h-1.182v-2.772a1.436,1.436,0,0,0-.307-1.011,1.125,1.125,0,0,0-.886-.33,1.573,1.573,0,0,0-.739.17,1.122,1.122,0,0,0-.489.511,1.9,1.9,0,0,0-.17.852v2.591h-1.17V378.25H299.3v1.386l-.193-.432a1.76,1.76,0,0,1,.761-.761,2.424,2.424,0,0,1,1.159-.273Z" transform="translate(-246.844 -375.932)" fill="#a5a5a5"/>
              <path id="패스_292" data-name="패스 292" d="M306.241,383.534v-6.7h2.7a3.569,3.569,0,0,1,1.5.284,2.214,2.214,0,0,1,.966.818,2.354,2.354,0,0,1,.341,1.284,2.315,2.315,0,0,1-.341,1.273,2.214,2.214,0,0,1-.966.818,3.565,3.565,0,0,1-1.5.3h-2.023l.534-.579v2.511H306.23Zm1.216-2.386-.534-.614h1.966a1.806,1.806,0,0,0,1.216-.352,1.221,1.221,0,0,0,.409-.977,1.205,1.205,0,0,0-.409-.977,1.869,1.869,0,0,0-1.216-.352h-1.966l.534-.614v3.886Z" transform="translate(-245.747 -376.114)" fill="#a5a5a5"/>
              <path id="패스_293" data-name="패스 293" d="M312.15,383.582v-7.1h1.17v7.1Z" transform="translate(-244.94 -376.162)" fill="#a5a5a5"/>
              <path id="패스_294" data-name="패스 294" d="M316.095,383.408a2.434,2.434,0,0,1-.989-.193,1.489,1.489,0,0,1-.659-.545,1.384,1.384,0,0,1-.227-.8,1.453,1.453,0,0,1,.2-.773,1.394,1.394,0,0,1,.659-.545,3.065,3.065,0,0,1,1.227-.2h1.454v.8H316.39a1.264,1.264,0,0,0-.807.193.615.615,0,0,0-.216.489.64.64,0,0,0,.25.511,1.178,1.178,0,0,0,.7.193,1.453,1.453,0,0,0,.773-.2,1.166,1.166,0,0,0,.5-.591l.193.716a1.4,1.4,0,0,1-.6.7,2.156,2.156,0,0,1-1.114.25Zm1.579-.057v-1.045l-.057-.216v-1.807a1.038,1.038,0,0,0-.318-.818,1.351,1.351,0,0,0-.954-.3,2.574,2.574,0,0,0-.818.136,2.133,2.133,0,0,0-.693.375l-.466-.875a2.747,2.747,0,0,1,.966-.477,3.965,3.965,0,0,1,1.159-.159,2.459,2.459,0,0,1,1.693.534,2.1,2.1,0,0,1,.591,1.648v3h-1.114Z" transform="translate(-244.658 -375.932)" fill="#a5a5a5"/>
              <path id="패스_295" data-name="패스 295" d="M318.97,379.356V378.4h3.352v.954Zm2.557,4.181a1.76,1.76,0,0,1-1.273-.432,1.713,1.713,0,0,1-.454-1.284v-4.6h1.17v4.556a.768.768,0,0,0,.193.568.7.7,0,0,0,.523.2.92.92,0,0,0,.636-.216l.341.852a1.507,1.507,0,0,1-.523.261A2.291,2.291,0,0,1,321.527,383.538Z" transform="translate(-244.011 -376.061)" fill="#a5a5a5"/>
              <path id="패스_296" data-name="패스 296" d="M322.48,379.467v-.954h3.352v.954Zm.829,4.125v-5.4a1.791,1.791,0,0,1,.466-1.3,1.767,1.767,0,0,1,1.329-.489,2.547,2.547,0,0,1,.591.068,1.176,1.176,0,0,1,.466.216l-.33.886a1.437,1.437,0,0,0-.3-.148,1.2,1.2,0,0,0-.352-.057.729.729,0,0,0-.557.2.882.882,0,0,0-.193.614v.591l.034.523v4.272H323.3Z" transform="translate(-243.533 -376.171)" fill="#a5a5a5"/>
              <path id="패스_297" data-name="패스 297" d="M328.36,383.41a2.7,2.7,0,0,1-1.363-.341,2.429,2.429,0,0,1-.954-.932,2.663,2.663,0,0,1-.352-1.352,2.6,2.6,0,0,1,.352-1.364,2.477,2.477,0,0,1,.954-.92,2.742,2.742,0,0,1,1.375-.341,2.816,2.816,0,0,1,1.386.341,2.561,2.561,0,0,1,.954.92,2.535,2.535,0,0,1,.341,1.364,2.6,2.6,0,0,1-.341,1.352,2.508,2.508,0,0,1-.954.932,2.785,2.785,0,0,1-1.386.341Zm0-1.011a1.59,1.59,0,0,0,.773-.193,1.362,1.362,0,0,0,.534-.568,1.848,1.848,0,0,0,.193-.852,1.814,1.814,0,0,0-.193-.852,1.4,1.4,0,0,0-.534-.557,1.434,1.434,0,0,0-.761-.193,1.546,1.546,0,0,0-.761.193,1.33,1.33,0,0,0-.534.557,1.687,1.687,0,0,0-.193.852,1.847,1.847,0,0,0,.193.852,1.4,1.4,0,0,0,1.284.761Z" transform="translate(-243.096 -375.933)" fill="#a5a5a5"/>
              <path id="패스_298" data-name="패스 298" d="M331.4,383.351v-5.113h1.125v1.409l-.136-.409a1.6,1.6,0,0,1,.7-.8,2.436,2.436,0,0,1,1.193-.273v1.136a.774.774,0,0,1-.136-.011h-.125a1.44,1.44,0,0,0-1.068.4,1.624,1.624,0,0,0-.4,1.193v2.466h-1.17Z" transform="translate(-242.319 -375.932)" fill="#a5a5a5"/>
              <path id="패스_299" data-name="패스 299" d="M341.172,378.17a2.31,2.31,0,0,1,1.068.239,1.692,1.692,0,0,1,.727.739,2.784,2.784,0,0,1,.261,1.273v2.932h-1.17v-2.772a1.493,1.493,0,0,0-.3-1.011,1.041,1.041,0,0,0-.841-.33,1.32,1.32,0,0,0-.682.17,1.2,1.2,0,0,0-.466.511,1.9,1.9,0,0,0-.159.852v2.591h-1.17V380.59a1.493,1.493,0,0,0-.3-1.011,1.041,1.041,0,0,0-.841-.33,1.32,1.32,0,0,0-.682.17,1.2,1.2,0,0,0-.466.511,1.9,1.9,0,0,0-.17.852v2.591h-1.17v-5.113h1.125v1.375l-.2-.409a1.834,1.834,0,0,1,.739-.761,2.215,2.215,0,0,1,1.114-.273,2.131,2.131,0,0,1,1.227.352,1.753,1.753,0,0,1,.682,1.091l-.454-.17a2,2,0,0,1,.8-.92,2.369,2.369,0,0,1,1.307-.352Z" transform="translate(-241.852 -375.932)" fill="#a5a5a5"/>
            </g>
          </g>
        </g>
        <g id="그룹_320" data-name="그룹 320" transform="translate(153 -517.359)">
          <g id="Layer_2" data-name="Layer 2" transform="translate(1978 722)">
            <path id="패스_304" data-name="패스 304" d="M8,1a7,7,0,1,0,7,7A7,7,0,0,0,8,1Zm2.359,9.359a.636.636,0,0,1-.9,0L7.55,8.45A.636.636,0,0,1,7.364,8V4.182a.636.636,0,1,1,1.273,0V7.737l1.723,1.723a.636.636,0,0,1,0,.9Z" fill="#fff"/>
          </g>
          <g id="calendar" transform="translate(1977 673)">
            <path id="패스_300" data-name="패스 300" d="M16,5.465V7.5H2V5.465A1.484,1.484,0,0,1,3.5,4h1V5a1.5,1.5,0,0,0,3,0V4h3V5a1.5,1.5,0,0,0,3,0V4h1A1.484,1.484,0,0,1,16,5.465Z" transform="translate(0 -0.5)" fill="#fff"/>
            <path id="패스_301" data-name="패스 301" d="M2,13v8.035A1.484,1.484,0,0,0,3.5,22.5h11A1.484,1.484,0,0,0,16,21.035V13Zm4.5,7a.5.5,0,0,1-.5.5H5a.5.5,0,0,1-.5-.5V19a.5.5,0,0,1,.5-.5H6a.5.5,0,0,1,.5.5Zm0-3.5A.5.5,0,0,1,6,17H5a.5.5,0,0,1-.5-.5v-1A.5.5,0,0,1,5,15H6a.5.5,0,0,1,.5.5ZM10,20a.5.5,0,0,1-.5.5h-1A.5.5,0,0,1,8,20V19a.5.5,0,0,1,.5-.5h1a.5.5,0,0,1,.5.5Zm0-3.5a.5.5,0,0,1-.5.5h-1a.5.5,0,0,1-.5-.5v-1a.5.5,0,0,1,.5-.5h1a.5.5,0,0,1,.5.5Zm3.5,0a.5.5,0,0,1-.5.5H12a.5.5,0,0,1-.5-.5v-1A.5.5,0,0,1,12,15h1a.5.5,0,0,1,.5.5Z" transform="translate(0 -5)" fill="#fff"/>
            <path id="패스_302" data-name="패스 302" d="M10,3.5v1a.5.5,0,1,1-1,0v-1a.5.5,0,1,1,1,0Z" transform="translate(-3.5)" fill="#fff"/>
            <path id="패스_303" data-name="패스 303" d="M22,3.5v1a.5.5,0,1,1-1,0v-1a.5.5,0,1,1,1,0Z" transform="translate(-9.5)" fill="#fff"/>
          </g>
          <path id="_x31_3" d="M64.56,110.136l-.021-.018-5.576-4.5a1.3,1.3,0,0,0-1.828.01,1.247,1.247,0,0,0-.338.919v3.624c-.011-.012-5.631-4.553-5.631-4.553a1.3,1.3,0,0,0-1.828.01,1.248,1.248,0,0,0-.338.919v9.01a1.248,1.248,0,0,0,.338.919,1.3,1.3,0,0,0,1.828.01s5.62-4.54,5.631-4.553v3.624a1.247,1.247,0,0,0,.338.919,1.3,1.3,0,0,0,1.828.01l5.576-4.5.021-.018a1.3,1.3,0,0,0,0-1.838Z" transform="translate(2012 664.25)" fill="#fff"/>
          <path id="_x31_3-2" data-name="_x31_3" d="M64.56,110.136l-.021-.018-5.576-4.5a1.3,1.3,0,0,0-1.828.01,1.247,1.247,0,0,0-.338.919v3.624c-.011-.012-5.631-4.553-5.631-4.553a1.3,1.3,0,0,0-1.828.01,1.248,1.248,0,0,0-.338.919v9.01a1.248,1.248,0,0,0,.338.919,1.3,1.3,0,0,0,1.828.01s5.62-4.54,5.631-4.553v3.624a1.247,1.247,0,0,0,.338.919,1.3,1.3,0,0,0,1.828.01l5.576-4.5.021-.018a1.3,1.3,0,0,0,0-1.838Z" transform="translate(2012 701.25)" fill="#368cff"/>
          <path id="_x31_3-3" data-name="_x31_3" d="M63.49,110.136l-.021-.018-5.576-4.5a1.3,1.3,0,0,0-1.828.01,1.247,1.247,0,0,0-.338.919v3.624c-.011-.012-.011,1.775,0,1.763v3.624a1.247,1.247,0,0,0,.338.919,1.3,1.3,0,0,0,1.828.01l5.576-4.5.021-.018a1.3,1.3,0,0,0,0-1.838Z" transform="translate(1971.125 664.25)" fill="#fff"/>
          <path id="_x31_3-4" data-name="_x31_3" d="M63.49,110.136l-.021-.018-5.576-4.5a1.3,1.3,0,0,0-1.828.01,1.247,1.247,0,0,0-.338.919v3.624c-.011-.012-.011,1.775,0,1.763v3.624a1.247,1.247,0,0,0,.338.919,1.3,1.3,0,0,0,1.828.01l5.576-4.5.021-.018a1.3,1.3,0,0,0,0-1.838Z" transform="translate(1971.125 701.25)" fill="#368cff"/>
          <path id="_x31_3-5" data-name="_x31_3" d="M64.56,110.136l-.021-.018-5.576-4.5a1.3,1.3,0,0,0-1.828.01,1.247,1.247,0,0,0-.338.919v3.624c-.011-.012-5.631-4.553-5.631-4.553a1.3,1.3,0,0,0-1.828.01,1.248,1.248,0,0,0-.338.919v9.01a1.248,1.248,0,0,0,.338.919,1.3,1.3,0,0,0,1.828.01s5.62-4.54,5.631-4.553v3.624a1.247,1.247,0,0,0,.338.919,1.3,1.3,0,0,0,1.828.01l5.576-4.5.021-.018a1.3,1.3,0,0,0,0-1.838Z" transform="translate(2043.941 886.359) rotate(180)" fill="#fff"/>
          <path id="_x31_3-6" data-name="_x31_3" d="M64.56,110.136l-.021-.018-5.576-4.5a1.3,1.3,0,0,0-1.828.01,1.247,1.247,0,0,0-.338.919v3.624c-.011-.012-5.631-4.553-5.631-4.553a1.3,1.3,0,0,0-1.828.01,1.248,1.248,0,0,0-.338.919v9.01a1.248,1.248,0,0,0,.338.919,1.3,1.3,0,0,0,1.828.01s5.62-4.54,5.631-4.553v3.624a1.247,1.247,0,0,0,.338.919,1.3,1.3,0,0,0,1.828.01l5.576-4.5.021-.018a1.3,1.3,0,0,0,0-1.838Z" transform="translate(2043.941 923.359) rotate(180)" fill="#368cff"/>
        </g>
      </g>
      <g id="x" transform="translate(2135 338.746)">
        <g id="그룹_106" data-name="그룹 106" transform="translate(0 0.004)">
          <path id="패스_58" data-name="패스 58" d="M5.832,5l4-4A.588.588,0,0,0,9,.176l-4,4-4-4a.588.588,0,0,0-.832.832l4,4-4,4A.588.588,0,1,0,1,9.831l4-4,4,4A.588.588,0,0,0,9.827,9Z" transform="translate(0 -0.004)" fill="#fff"/>
        </g>
      </g>
    </g>
    <path id="다각형_6" data-name="다각형 6" d="M3.75,1.481a1,1,0,0,1,1.728,0L8.35,6.4a1,1,0,0,1-.864,1.5H1.741A1,1,0,0,1,.877,6.4Z" transform="translate(2145 389.409) rotate(180)" fill="#fff" opacity="0.8"/>
  </g>
</svg>
