<svg xmlns="http://www.w3.org/2000/svg" xmlns:xlink="http://www.w3.org/1999/xlink" width="774.495" height="1076" viewBox="0 0 774.495 1076">
  <defs>
    <filter id="패스_81" x="3.495" y="30.056" width="28.5" height="28.5" filterUnits="userSpaceOnUse">
      <feOffset dy="3" input="SourceAlpha"/>
      <feGaussianBlur stdDeviation="3" result="blur"/>
      <feFlood flood-opacity="0.161"/>
      <feComposite operator="in" in2="blur"/>
      <feComposite in="SourceGraphic"/>
    </filter>
    <clipPath id="clip-path">
      <path id="패스_215" data-name="패스 215" d="M0,0H28V28H0Z" fill="none"/>
    </clipPath>
  </defs>
  <g id="그룹_292" data-name="그룹 292" transform="translate(-48.505 -73)">
    <g id="그룹_291" data-name="그룹 291">
      <g id="그룹_290" data-name="그룹 290">
        <g id="그룹_289" data-name="그룹 289">
          <g id="그룹_287" data-name="그룹 287">
            <path id="_228534648" d="M94250.633,71172.7l5.953-5.953a.462.462,0,0,1,.641,0l.57.578a.453.453,0,0,1,0,.633l-5.953,5.953a.453.453,0,0,1-.633,0l-.578-.578A.453.453,0,0,1,94250.633,71172.7Z" transform="translate(-93788.422 -71088.625)" fill="#368cff" fill-rule="evenodd"/>
            <path id="_228534744" d="M48084.2,106111.4l3.625,3.625a.446.446,0,0,1,0,.633l-.574.578a.458.458,0,0,1-.637,0l-3.625-3.625a.459.459,0,0,1,0-.641l.574-.57A.443.443,0,0,1,48084.2,106111.4Z" transform="translate(-47623.852 -106030.938)" fill="#368cff" fill-rule="evenodd"/>
            <path id="다각형_3" data-name="다각형 3" d="M2.636,1.481a1,1,0,0,1,1.728,0L6.123,4.5A1,1,0,0,1,5.259,6H1.741A1,1,0,0,1,.877,4.5Z" transform="translate(461.15 132)" fill="#fff"/>
            <path id="다각형_4" data-name="다각형 4" d="M2.636,1.481a1,1,0,0,1,1.728,0L6.123,4.5A1,1,0,0,1,5.259,6H1.741A1,1,0,0,1,.877,4.5Z" transform="translate(468.15 202) rotate(180)" fill="#fff"/>
            <g id="그룹_10" data-name="그룹 10" transform="translate(459.15 252.5)">
              <line id="선_13" data-name="선 13" x1="9" transform="translate(0 4.5)" fill="none" stroke="#fafafa" stroke-width="1"/>
              <line id="선_14" data-name="선 14" y1="9" transform="translate(4.5)" fill="none" stroke="#fafafa" stroke-width="1"/>
            </g>
            <g id="그룹_261" data-name="그룹 261" transform="translate(-0.357)">
              <path id="패스_12" data-name="패스 12" d="M9.149,10.252a.443.443,0,0,1,.485.4l.3,2.953a.443.443,0,1,1-.882.088l-.3-2.953A.443.443,0,0,1,9.149,10.252Z" transform="translate(306.804 187.284)" fill="#fff" fill-rule="evenodd"/>
              <path id="패스_13" data-name="패스 13" d="M14.032,10.252a.443.443,0,0,1,.4.485l-.3,2.953a.443.443,0,1,1-.882-.088l.3-2.953A.443.443,0,0,1,14.032,10.252Z" transform="translate(304.962 187.284)" fill="#fff" fill-rule="evenodd"/>
              <g id="그룹_15" data-name="그룹 15" transform="translate(311.901 192.218)">
                <path id="패스_14" data-name="패스 14" d="M7.03,1.25h2a2.2,2.2,0,0,1,.344.017,1.329,1.329,0,0,1,.969.7,2.2,2.2,0,0,1,.125.321l.066.2.017.05a.738.738,0,0,0,.676.487h1.825a.443.443,0,1,1,0,.886H3.007a.443.443,0,1,1,0-.886H4.833a.738.738,0,0,0,.676-.487l.017-.05.066-.2a2.206,2.206,0,0,1,.125-.321,1.329,1.329,0,0,1,.969-.7A2.205,2.205,0,0,1,7.03,1.25ZM6.261,3.022a1.628,1.628,0,0,0,.081-.186c.007-.019.014-.04.023-.067l.059-.177A1.84,1.84,0,0,1,6.5,2.374a.443.443,0,0,1,.323-.233,1.839,1.839,0,0,1,.232-.006H9a1.84,1.84,0,0,1,.232.006.443.443,0,0,1,.323.233,1.844,1.844,0,0,1,.079.218l.059.177.023.067a1.622,1.622,0,0,0,.081.186Z" transform="translate(-2.565 -1.25)" fill="#fff" fill-rule="evenodd"/>
                <path id="패스_15" data-name="패스 15" d="M4.83,7.751a.443.443,0,0,1,.471.413l.272,4.075a15.307,15.307,0,0,0,.174,1.767,1.328,1.328,0,0,0,.354.769,1.329,1.329,0,0,0,.791.3,15.311,15.311,0,0,0,1.774.056h.457a15.311,15.311,0,0,0,1.774-.056,1.329,1.329,0,0,0,.791-.3,1.328,1.328,0,0,0,.354-.769,15.308,15.308,0,0,0,.174-1.767l.272-4.075a.443.443,0,0,1,.884.059L13.1,12.329a15.643,15.643,0,0,1-.187,1.85,2.193,2.193,0,0,1-.618,1.243,2.193,2.193,0,0,1-1.282.534,15.652,15.652,0,0,1-1.858.063H8.636a15.652,15.652,0,0,1-1.858-.063A2.193,2.193,0,0,1,5.5,15.422a2.193,2.193,0,0,1-.618-1.243,15.644,15.644,0,0,1-.187-1.85L4.418,8.222a.443.443,0,0,1,.413-.471Z" transform="translate(-3.323 -3.911)" fill="#fff" fill-rule="evenodd"/>
              </g>
            </g>
            <g id="그룹_262" data-name="그룹 262">
              <path id="패스_16" data-name="패스 16" d="M5.178,9.178a.608.608,0,0,1,.861,0L9.259,12.4,12.48,9.178a.608.608,0,0,1,.86.861L9.69,13.69a.608.608,0,0,1-.86,0L5.178,10.039A.608.608,0,0,1,5.178,9.178Z" transform="translate(305.048 122.365)" fill="#fff" fill-rule="evenodd"/>
              <path id="패스_17" data-name="패스 17" d="M11.608,3a.608.608,0,0,1,.608.608v7.3a.608.608,0,0,1-1.217,0v-7.3A.608.608,0,0,1,11.608,3Z" transform="translate(302.699 124.714)" fill="#fff" fill-rule="evenodd"/>
              <path id="패스_18" data-name="패스 18" d="M5,19.608A.608.608,0,0,1,5.608,19h7.3a.608.608,0,1,1,0,1.217h-7.3A.608.608,0,0,1,5,19.608Z" transform="translate(305.048 118.45)" fill="#fff" fill-rule="evenodd"/>
            </g>
            <path id="logs" d="M2.423.746a.729.729,0,0,0-.712.746v8.2a.729.729,0,0,0,.712.746H9.541a.729.729,0,0,0,.712-.746v-8.2A.729.729,0,0,0,9.541.746ZM1,1.491A1.459,1.459,0,0,1,2.423,0H9.541a1.459,1.459,0,0,1,1.423,1.491v8.2a1.459,1.459,0,0,1-1.423,1.491H2.423A1.459,1.459,0,0,1,1,9.693ZM3.491,2.983a.373.373,0,0,0,0,.746H8.473a.373.373,0,0,0,0-.746Zm0,4.474a.373.373,0,0,0,0,.746H8.473a.373.373,0,0,0,0-.746ZM3.135,5.592a.365.365,0,0,1,.356-.373H8.473a.373.373,0,0,1,0,.746H3.491A.365.365,0,0,1,3.135,5.592Z" transform="translate(308.119 80.897)" fill="#fff" stroke="#fff" stroke-width="0.2" fill-rule="evenodd"/>
            <path id="패스_3" data-name="패스 3" d="M6.533,11.815a5.283,5.283,0,0,1,0-10.565A5.175,5.175,0,0,1,8.9,1.815a.369.369,0,1,1-.334.658,4.423,4.423,0,0,0-2.034-.491,4.546,4.546,0,1,0,4.546,4.55.983.983,0,0,0,0-.123.37.37,0,1,1,.737-.069v.192A5.288,5.288,0,0,1,6.533,11.815Z" transform="translate(310.651 253.147)" fill="#fff" stroke="#fafafa" stroke-width="0.3"/>
            <path id="패스_4" data-name="패스 4" d="M8.987,9.563a.344.344,0,0,1-.256-.108L6.358,7.126a.369.369,0,0,1,0-.521.378.378,0,0,1,.526,0L8.992,8.683,13.734,4.02a.378.378,0,0,1,.526,0,.369.369,0,0,1,0,.521l-5,4.914A.364.364,0,0,1,8.987,9.563Z" transform="translate(308.108 251.792)" fill="#fff" stroke="#fafafa" stroke-width="0.3"/>
            <path id="cancel" d="M8.37,4.246,6.651,5.965,8.37,7.685a.469.469,0,1,1-.663.663L5.988,6.628,4.268,8.348a.469.469,0,0,1-.663-.663L5.325,5.965,3.605,4.246a.469.469,0,1,1,.663-.663L5.988,5.3,7.707,3.583a.469.469,0,1,1,.663.663Zm1.872-2.488a6,6,0,0,0-8.485,8.485,6,6,0,0,0,7.347.893.469.469,0,1,0-.486-.8A5.107,5.107,0,1,1,10.2,8.81a.469.469,0,0,0,.779.521,5.985,5.985,0,0,0-.741-7.574Zm0,0" transform="translate(311.902 326.191)" fill="#fe3e0d" stroke="#fe3e0d" stroke-width="0.1"/>
            <path id="mountain_2_" data-name="mountain (2)" d="M59.913,62.951l1.768-1.206-1.821-1.089,1.758-1.2-1.41-.987a7,7,0,0,0-1.01-2.8c-.636-1-1.278-1.491-1.961-1.491a2.77,2.77,0,0,0-1.763.983,2.224,2.224,0,0,1-.561.445.159.159,0,0,1-.051.009c-.26,0-.574-.707-.878-1.391A9.775,9.775,0,0,0,52.753,52a1.669,1.669,0,0,0-1.311-.69,2.42,2.42,0,0,0-1.513.678L49.922,52l-5.573,7.382-3.064.451,1.836,1.125-1.614,1.279,1.675,1.026-1.609,1.275,10.247,6.28,9.926-6.772Zm0-4.383.006.072,1.163.814L59.2,60.738a2.95,2.95,0,0,0-1.109-1.8,1.527,1.527,0,0,0-.555-.206,5.036,5.036,0,0,1,1.624-2.525A6.711,6.711,0,0,1,59.909,58.568Zm-.986,2.357-1.66,1.133c.041-.319.055-.665.069-1.05a18.645,18.645,0,0,1,.153-1.971,1.221,1.221,0,0,1,.442.164A2.8,2.8,0,0,1,58.922,60.924ZM57.4,54.5a2.559,2.559,0,0,1,1.534,1.334c.021.034.042.067.062.1a5.279,5.279,0,0,0-1.776,2.775,2.156,2.156,0,0,0-.628.114,5.5,5.5,0,0,0-1.227.655l-.092.059c.012-.181.026-.359.048-.534A7.1,7.1,0,0,1,57.4,54.5Zm-8.869,8.142a4.519,4.519,0,0,0-.619-1.6,4.027,4.027,0,0,0-1.228-1.085,12.525,12.525,0,0,0,1.088-1.553c.115.023.228.048.336.076,1.1.294,1.363,1.263,1.636,2.289l.051.192a4.943,4.943,0,0,0,.454,1.218c-.206,1.3-.373,2.145-.449,2.512l-.322-.2A2.847,2.847,0,0,1,48.536,62.642Zm.121,1.349-4.012-2.459A4.927,4.927,0,0,0,46.482,60.2a3.725,3.725,0,0,1,1.19,1.034,4.246,4.246,0,0,1,.566,1.486A6.383,6.383,0,0,0,48.657,63.992Zm1.991-4.549q-.16,1.242-.31,2.209a6.983,6.983,0,0,1-.241-.765l-.051-.191c-.284-1.065-.577-2.166-1.854-2.506-.081-.021-.164-.04-.249-.059.342-.583.667-1.194.989-1.8.175-.329.344-.645.513-.953a3.519,3.519,0,0,1,1.874,1.374A12.455,12.455,0,0,0,50.648,59.442Zm.882-2.375a5.685,5.685,0,0,1,.65,1.563,3.541,3.541,0,0,0,.807,1.558c-.067.683-.149,1.415-.27,2.12l-.113.043a2.163,2.163,0,0,1-1.5.219,1.131,1.131,0,0,1-.527-.454c.116-.74.245-1.62.376-2.634A12.056,12.056,0,0,1,51.529,57.067Zm-1.019,5.46a1.3,1.3,0,0,0,.484.329,2.32,2.32,0,0,0,1.658-.2,4.963,4.963,0,0,1-1.346,2.956l-1.223-.75C50.141,64.593,50.3,63.8,50.51,62.527Zm2.477.007a2.418,2.418,0,0,1,.8-.178h0a1.846,1.846,0,0,1,1.006.282,3.9,3.9,0,0,1-.567,1.493L51.7,65.854l-.113-.069A5.727,5.727,0,0,0,52.987,62.534Zm.06-.345c.1-.6.169-1.215.228-1.8a.975.975,0,0,0,.568.1,2.935,2.935,0,0,0,1.1-.393c0,.167-.008.334-.011.5a15.484,15.484,0,0,1-.094,1.707,2.181,2.181,0,0,0-1.058-.26h0A2.4,2.4,0,0,0,53.046,62.19Zm2.013.666a1.727,1.727,0,0,1,.338.473l-.621.424A4.529,4.529,0,0,0,55.059,62.856Zm.064-.355a14.541,14.541,0,0,0,.117-1.893c0-.237.009-.467.018-.693.093-.059.186-.118.277-.178a5.2,5.2,0,0,1,1.157-.621,1.877,1.877,0,0,1,.485-.1A19.151,19.151,0,0,0,57.025,61a7.906,7.906,0,0,1-.113,1.3l-1.259.859a2,2,0,0,0-.529-.654Zm-.506-6.647a.481.481,0,0,0,.244.068.466.466,0,0,0,.146-.024,2.2,2.2,0,0,0,.676-.513,3.243,3.243,0,0,1,1.254-.858,7.6,7.6,0,0,0-1.916,4.44c-.032.25-.051.51-.063.773a2.873,2.873,0,0,1-1.151.451.71.71,0,0,1-.5-.138c.013-.137.026-.272.039-.4.058-.61.108-1.137.174-1.557A3.1,3.1,0,0,1,54.617,55.854Zm-.914-1.5a6.281,6.281,0,0,0,.679,1.293,3.5,3.5,0,0,0-1.166,2.4c-.067.43-.117.96-.176,1.575l-.015.154a3.793,3.793,0,0,1-.551-1.22,5.937,5.937,0,0,0-.814-1.851,13.983,13.983,0,0,1,1.68-3.143C53.471,53.827,53.59,54.094,53.7,54.35ZM52.516,52.2a6.141,6.141,0,0,1,.673,1.055,14.022,14.022,0,0,0-1.741,3.156A3.755,3.755,0,0,0,49.6,55.1c.053-.094.105-.188.158-.28a7.442,7.442,0,0,1,2.47-2.9A1.919,1.919,0,0,1,52.516,52.2Zm-2.363,0a2.115,2.115,0,0,1,1.29-.582,1.177,1.177,0,0,1,.492.109,8.324,8.324,0,0,0-2.442,2.933q-.1.177-.2.357A3.605,3.605,0,0,0,48.043,55ZM47.769,55.36a3.427,3.427,0,0,1,1.365-.055c-.156.286-.312.578-.473.881-.338.635-.679,1.277-1.038,1.883a8.451,8.451,0,0,0-1.838-.082Zm-2.23,2.954a8.416,8.416,0,0,1,1.912.04,11.716,11.716,0,0,1-1.041,1.462,4.742,4.742,0,0,0-1.68-.429Zm-3.373,1.7,2.275-.335a4.593,4.593,0,0,1,1.755.378,4.4,4.4,0,0,1-1.888,1.269Zm-.125,2.192L43.4,61.129l5.925,3.631h0l2.38,1.459,7.875-5.373,1.531.916-9.367,6.39Zm9.77,8.249-9.7-5.947,1.354-1.073,8.294,5.083,7.88-5.376,1.543.923Z" transform="translate(412.134 366.033)" fill="#fff" stroke="#fff" stroke-width="0.3"/>
            <g id="그룹_69" data-name="그룹 69" transform="translate(459.951 500.269)">
              <g id="그룹_68" data-name="그룹 68">
                <path id="패스_43" data-name="패스 43" d="M1.071,15.536V1.607a.536.536,0,0,1,.536-.536H9.643V3.214a1.071,1.071,0,0,0,1.071,1.071h2.143V5.893h1.071V3.75a.536.536,0,0,0-.155-.38L10.559.155A.536.536,0,0,0,10.179,0H1.607A1.607,1.607,0,0,0,0,1.607V15.536a1.607,1.607,0,0,0,1.607,1.607h3.75V16.071H1.607A.536.536,0,0,1,1.071,15.536Z" transform="translate(0 0)" fill="#fff"/>
                <path id="패스_44" data-name="패스 44" d="M131.206,256.409a1.607,1.607,0,0,0-1.063-.409H128v1.071h2.143a.536.536,0,0,1,0,1.071H128v1.071h2.143a.536.536,0,1,1,0,1.071H128v1.071h2.143a5.549,5.549,0,0,0,1.063-4.948Z" transform="translate(-122.107 -247.428)" fill="#fff"/>
                <path id="패스_45" data-name="패스 45" d="M258.679,256h-2.143a.536.536,0,0,0-.536.536v4.286a.536.536,0,0,0,.536.536h2.143a1.071,1.071,0,0,0,1.071-1.071v-3.214A1.071,1.071,0,0,0,258.679,256Zm0,4.286h-1.607v-3.214h1.607Z" transform="translate(-245.821 -247.428)" fill="#fff"/>
              </g>
            </g>
            <path id="패스_47" data-name="패스 47" d="M.216,4.929l4.434,1.9,4.09-4.09a.351.351,0,0,1,.5.5l-4.09,4.09,1.9,4.434a.351.351,0,0,0,.651-.015L11.952.474A.351.351,0,0,0,11.5.023L.231,4.278a.351.351,0,0,0-.015.651Z" transform="translate(166.521 258.977)" fill="#fff"/>
            <g id="그룹_74" data-name="그룹 74" transform="translate(168.01 194.343)">
              <path id="패스_52" data-name="패스 52" d="M5.249,4.5l3.6-3.6A.529.529,0,0,0,8.1.159l-3.6,3.6L.9.159A.529.529,0,0,0,.155.908l3.6,3.6L.155,8.1A.529.529,0,1,0,.9,8.849l3.6-3.6,3.6,3.6A.529.529,0,0,0,8.845,8.1Z" transform="translate(0 -0.004)" fill="#fff"/>
            </g>
            <g id="그룹_71" data-name="그룹 71" transform="translate(164.701 85.422)">
              <g id="그룹_70" data-name="그룹 70" transform="translate(0 0)">
                <path id="패스_48" data-name="패스 48" d="M15.518,97.508c-.14-.191-3.464-4.673-7.709-4.673S.238,97.317.1,97.508a.515.515,0,0,0,0,.608c.139.191,3.464,4.673,7.709,4.673s7.57-4.482,7.709-4.673A.515.515,0,0,0,15.518,97.508Zm-7.709,4.251c-3.127,0-5.836-2.975-6.638-3.948.8-.973,3.5-3.947,6.638-3.947s5.836,2.974,6.638,3.948C13.645,98.786,10.942,101.759,7.808,101.759Z" transform="translate(0 -92.835)" fill="#fff"/>
              </g>
            </g>
            <g id="그룹_73" data-name="그룹 73" transform="translate(169.421 87.31)">
              <g id="그룹_72" data-name="그룹 72" transform="translate(0 0)">
                <path id="패스_49" data-name="패스 49" d="M157.811,154.725a3.089,3.089,0,1,0,3.089,3.089A3.093,3.093,0,0,0,157.811,154.725Zm0,5.148a2.059,2.059,0,1,1,2.059-2.059A2.062,2.062,0,0,1,157.811,159.873Z" transform="translate(-154.722 -154.725)" fill="#fff"/>
              </g>
            </g>
            <path id="Hide" d="M9.511,21.842l.865-.865a2.847,2.847,0,0,1-3.494,3.494l.865-.865a1.9,1.9,0,0,0,1.763-1.763Zm5.667-.36a9.974,9.974,0,0,0-2.513-2.795l-.693.693a9.531,9.531,0,0,1,2.23,2.334,8.193,8.193,0,0,1-6.583,3.809,7,7,0,0,1-1.6-.189l-.783.783a8.066,8.066,0,0,0,2.383.359c4.985,0,7.456-4.346,7.559-4.531A.476.476,0,0,0,15.178,21.483Zm-1.984-4.67L2.718,27.289a.476.476,0,1,1-.673-.673l1.333-1.333A9.992,9.992,0,0,1,.06,21.945a.476.476,0,0,1,0-.463c.1-.185,2.574-4.531,7.559-4.531a8.019,8.019,0,0,1,3.36.729l1.542-1.542a.476.476,0,1,1,.673.673Zm-9.107,7.76,1.206-1.206a2.853,2.853,0,0,1,3.979-3.979l.975-.975A7.012,7.012,0,0,0,7.619,17.9a8.192,8.192,0,0,0-6.583,3.809,9.35,9.35,0,0,0,3.051,2.859Zm1.9-1.9,2.6-2.6a1.883,1.883,0,0,0-.961-.27,1.907,1.907,0,0,0-1.9,1.9,1.883,1.883,0,0,0,.27.961Z" transform="translate(164.891 116.857)" fill="#fff"/>
            <g id="그룹_106" data-name="그룹 106" transform="translate(168.01 336.897)">
              <path id="패스_58" data-name="패스 58" d="M8.456,7.254,14.25,1.46A.853.853,0,1,0,13.044.254L7.25,6.048,1.456.254A.853.853,0,0,0,.25,1.46L6.044,7.254.25,13.048a.853.853,0,1,0,1.206,1.206L7.25,8.46l5.794,5.794a.853.853,0,0,0,1.206-1.206Z" transform="translate(0 -0.004)" fill="#010101"/>
            </g>
            <path id="패스_77" data-name="패스 77" d="M7.7,13.771H5.969a.736.736,0,0,1-.728-.617l-.2-1.246c-.092-.034-.183-.07-.273-.108l-1,.764a.758.758,0,0,1-.954-.052L1.554,11.325a.743.743,0,0,1-.124-.916l.7-1.158a5.3,5.3,0,0,1-.218-.529L.579,8.43A.733.733,0,0,1,0,7.709V5.982A.735.735,0,0,1,.62,5.255l1.355-.221c.054-.136.114-.27.179-.4l-.745-1.22A.741.741,0,0,1,1.526,2.5L2.774,1.3a.75.75,0,0,1,.953-.058L4.861,2.1c.053-.021.106-.041.161-.061l.22-1.4A.735.735,0,0,1,5.969.017H7.7a.741.741,0,0,1,.72.58l.316,1.438c.049.018.1.035.146.055l1.215-.825a.753.753,0,0,1,.921.075l1.254,1.187a.733.733,0,0,1,.1.95l-.776,1.142q.1.206.187.421l1.356.222a.734.734,0,0,1,.618.727V7.714a.74.74,0,0,1-.58.719l-1.33.291a5,5,0,0,1-.194.477l.74,1.076a.735.735,0,0,1-.1.95l-1.246,1.2a.751.751,0,0,1-.921.08l-1.086-.727q-.167.075-.345.14l-.28,1.277A.743.743,0,0,1,7.7,13.771Zm-1.628-.852H7.6L7.916,11.5a.427.427,0,0,1,.288-.315,4.343,4.343,0,0,0,.68-.275.426.426,0,0,1,.431.026l1.211.811,1.109-1.063-.827-1.2a.425.425,0,0,1-.025-.441,4.416,4.416,0,0,0,.327-.8.424.424,0,0,1,.317-.293L12.9,7.624V6.087L11.4,5.841a.428.428,0,0,1-.335-.284,4.31,4.31,0,0,0-.337-.754.425.425,0,0,1,.019-.449l.865-1.275L10.494,2.022l-1.229.834a.311.311,0,0,1-.041.043.426.426,0,0,1-.464.067,4.264,4.264,0,0,0-.537-.2.427.427,0,0,1-.3-.392L7.6.869H6.067L5.818,2.392l-.016,0a.513.513,0,0,1-.273.375,4.311,4.311,0,0,0-.552.211.426.426,0,0,1-.47-.069.364.364,0,0,1-.034-.035L3.293,1.985,2.184,3.048l.789,1.29a.443.443,0,0,1,.045.483,4.476,4.476,0,0,0-.325.731.425.425,0,0,1-.336.283l-1.5.246V7.617l1.477.325a.428.428,0,0,1,.317.294,4.355,4.355,0,0,0,.343.83.425.425,0,0,1-.01.422l-.772,1.281,1.115,1.056,1.131-.86a.427.427,0,0,1,.449-.042,4.406,4.406,0,0,0,.644.257.428.428,0,0,1,.293.337Zm.855-3.432A2.518,2.518,0,1,1,9.441,6.969,2.521,2.521,0,0,1,6.922,9.487Zm0-4.184A1.666,1.666,0,1,0,8.589,6.969,1.668,1.668,0,0,0,6.922,5.3Z" transform="translate(168.01 417.33)" fill="#fff"/>
            <g id="그룹_115" data-name="그룹 115" transform="translate(170.106 526.877)">
              <path id="패스_75" data-name="패스 75" d="M15.83,24.522a4.772,4.772,0,0,1-2.385-8.9.523.523,0,1,0-.53-.9,5.825,5.825,0,1,0,8.745,5.035,5.9,5.9,0,0,0-2.915-5.062.523.523,0,0,0-.53.9,4.789,4.789,0,0,1-2.385,8.931Z" transform="translate(-10 -12.332)" fill="#fff"/>
              <path id="패스_76" data-name="패스 76" d="M31.06,10.24V6.53a.53.53,0,0,0-1.06,0v3.71a.53.53,0,0,0,1.06,0Z" transform="translate(-24.7 -5)" fill="#fff"/>
            </g>
            <g id="Hospital_2_" transform="translate(169.766 475.785)">
              <line id="선_26" data-name="선 26" y2="2" transform="translate(3)" fill="none" stroke="#fff" stroke-linecap="round" stroke-linejoin="round" stroke-miterlimit="10" stroke-width="1"/>
              <line id="선_27" data-name="선 27" y2="2" transform="translate(8)" fill="none" stroke="#fff" stroke-linecap="round" stroke-linejoin="round" stroke-miterlimit="10" stroke-width="1"/>
              <path id="패스_78" data-name="패스 78" d="M24.54,70.278H22.056A2.056,2.056,0,0,1,20,68.223V62.056A2.056,2.056,0,0,1,22.056,60H29.25a2.056,2.056,0,0,1,2.056,2.056v1.028H20" transform="translate(-20 -58.972)" fill="none" stroke="#fff" stroke-linecap="round" stroke-linejoin="round" stroke-miterlimit="10" stroke-width="1"/>
              <line id="선_28" data-name="선 28" transform="translate(2 7)" fill="none" stroke="#fff" stroke-linecap="round" stroke-linejoin="round" stroke-miterlimit="10" stroke-width="1"/>
              <line id="선_29" data-name="선 29" transform="translate(4 7)" fill="none" stroke="#fff" stroke-linecap="round" stroke-linejoin="round" stroke-miterlimit="10" stroke-width="1"/>
              <line id="선_30" data-name="선 30" transform="translate(2 8)" fill="none" stroke="#fff" stroke-linecap="round" stroke-linejoin="round" stroke-miterlimit="10" stroke-width="1"/>
              <line id="선_31" data-name="선 31" transform="translate(4 8)" fill="none" stroke="#fff" stroke-linecap="round" stroke-linejoin="round" stroke-miterlimit="10" stroke-width="1"/>
            </g>
            <circle id="타원_10" data-name="타원 10" cx="3.5" cy="3.5" r="3.5" transform="translate(175.766 481.785)" fill="none" stroke="#fff" stroke-linecap="round" stroke-linejoin="round" stroke-miterlimit="10" stroke-width="1"/>
            <line id="선_32" data-name="선 32" y1="1" transform="translate(178.766 483.785)" fill="none" stroke="#fff" stroke-linecap="round" stroke-linejoin="round" stroke-miterlimit="10" stroke-width="1"/>
            <line id="선_33" data-name="선 33" x1="1" transform="translate(178.766 484.785)" fill="none" stroke="#fff" stroke-linecap="round" stroke-linejoin="round" stroke-miterlimit="10" stroke-width="1"/>
            <g id="그룹_232" data-name="그룹 232" transform="translate(49.157 173.151)">
              <path id="패스_1" data-name="패스 1" d="M2.494,11.8l7.97,4.968a3.262,3.262,0,0,0,3.429,0l7.97-4.968a3.138,3.138,0,0,0,0-5.345l-7.97-4.968a3.265,3.265,0,0,0-3.429,0L2.494,6.457a3.138,3.138,0,0,0,0,5.345Z" transform="translate(-1 -1.002)" fill="#e9ecf1"/>
              <path id="패스_2" data-name="패스 2" d="M22.34,14a1.016,1.016,0,0,0-1.016,1.016,1.1,1.1,0,0,1-.536.948l-7.971,4.967a1.212,1.212,0,0,1-1.278,0L3.568,15.964a1.1,1.1,0,0,1-.536-.948,1.016,1.016,0,0,0-2.032,0,3.134,3.134,0,0,0,1.494,2.673l7.97,4.968a3.262,3.262,0,0,0,3.429,0l7.97-4.968a3.134,3.134,0,0,0,1.494-2.673A1.016,1.016,0,0,0,22.34,14Z" transform="translate(-1 -0.792)" fill="#5299f8"/>
            </g>
            <g id="그룹_233" data-name="그룹 233" transform="translate(48.505 244.843)">
              <g id="그룹_26" data-name="그룹 26" transform="translate(9.366)">
                <path id="패스_22" data-name="패스 22" d="M219.943,40.611l7.44-4.467L218.318,15l-9.065,20.3Z" transform="translate(-209.253 -15)" fill="#bfdbff" fill-rule="evenodd"/>
                <path id="패스_23" data-name="패스 23" d="M218.318,15l1.625,25.611-10.69-5.31Z" transform="translate(-209.253 -15)" fill="#5299f8" fill-rule="evenodd"/>
              </g>
              <g id="그룹_25" data-name="그룹 25" transform="translate(0 11.365)">
                <path id="패스_24" data-name="패스 24" d="M21.524,189.046,15,192.608v7.123l6.524,3.562,6.524-3.562v-7.123Z" transform="translate(-15 -189.046)" fill="#e9ecf1" fill-rule="evenodd"/>
                <path id="패스_25" data-name="패스 25" d="M15,246.452l6.524,3.562v7.123L15,253.575Z" transform="translate(-15 -242.89)" fill="#adcdf9" fill-rule="evenodd"/>
                <path id="패스_26" data-name="패스 26" d="M126.674,246.452l-6.524,3.562v7.123l6.524-3.561Z" transform="translate(-113.626 -242.89)" fill="#3382ec" fill-rule="evenodd"/>
              </g>
            </g>
            <g id="그룹_234" data-name="그룹 234" transform="translate(15 68.556)">
              <g id="그룹_54" data-name="그룹 54" transform="translate(1 2)">
                <g id="_3d-file_1_" data-name="3d-file (1)" transform="translate(34.714 27.7)">
                  <path id="패스_27" data-name="패스 27" d="M25.572,6.475v12.35A1.578,1.578,0,0,1,23.994,20.4H11.578A1.578,1.578,0,0,1,10,18.825V2.58A1.578,1.578,0,0,1,11.578,1L20.052.971Z" transform="translate(-9 -0.939)" fill="#e9ecf1"/>
                  <path id="패스_28" data-name="패스 28" d="M45.47,6.47H40.5a.5.5,0,0,1-.5-.5V1Z" transform="translate(-28.898 -0.968)" fill="#5299f8"/>
                </g>
              </g>
              <g id="그룹_122" data-name="그룹 122" transform="translate(-292 -87.5)">
                <g transform="matrix(1, 0, 0, 1, 325.51, 91.94)" filter="url(#패스_81)">
                  <path id="패스_81-2" data-name="패스 81" d="M5.25,0A5.25,5.25,0,1,1,0,5.25,5.25,5.25,0,0,1,5.25,0Z" transform="translate(12.49 36.06)" fill="#5299f8"/>
                </g>
                <g id="그룹_10-2" data-name="그룹 10" transform="translate(340.064 130.064)">
                  <line id="선_13-2" data-name="선 13" x1="6.826" transform="translate(0 3.413)" fill="none" stroke="#fff" stroke-width="1"/>
                  <line id="선_14-2" data-name="선 14" y1="6.826" transform="translate(3.413 0)" fill="none" stroke="#fff" stroke-width="1"/>
                </g>
              </g>
            </g>
            <path id="sidebar" d="M6.412,4A3.412,3.412,0,0,0,3,7.412V18.787A3.412,3.412,0,0,0,6.412,22.2H20.062a3.412,3.412,0,0,0,3.412-3.412V7.412A3.412,3.412,0,0,0,20.062,4ZM5.275,7.412A1.137,1.137,0,0,1,6.412,6.275H9.825V19.924H6.412a1.137,1.137,0,0,1-1.137-1.137ZM12.1,19.924h7.962A1.137,1.137,0,0,0,21.2,18.787V7.412a1.137,1.137,0,0,0-1.137-1.137H12.1Z" transform="translate(51.495 566.051)" fill="#fff" fill-rule="evenodd"/>
            <path id="search" d="M19.713,17.943l-4.688-4.876a7.95,7.95,0,1,0-6.088,2.84,7.868,7.868,0,0,0,4.557-1.439l4.724,4.913a1.037,1.037,0,1,0,1.5-1.438ZM8.938,2.075A5.879,5.879,0,1,1,3.059,7.953,5.885,5.885,0,0,1,8.938,2.075Z" transform="translate(54.239 641.845)" fill="#fff"/>
            <g id="file_2_" data-name="file (2)" transform="translate(12.596 481.78)">
              <path id="패스_53" data-name="패스 53" d="M67.685,59.526V76.387a2.524,2.524,0,0,1-2.524,2.524H44.423A2.524,2.524,0,0,1,41.9,76.387V49.974a2.524,2.524,0,0,1,2.524-2.524H55.609Z" transform="translate(0 -44.236)" fill="#bed8fb"/>
              <path id="패스_54" data-name="패스 54" d="M91.873,31.462a2.524,2.524,0,0,1-2.524-2.524V2.524A2.524,2.524,0,0,1,91.873,0h11.185c1.923,0,12.077,10.154,12.077,12.076V28.937a2.524,2.524,0,0,1-2.524,2.524Z" transform="translate(-44.236 0)" fill="#ddeafb"/>
              <path id="패스_55" data-name="패스 55" d="M289.159,12.077v1.068a4.072,4.072,0,0,0-4.071-4.071h-2.478a2.525,2.525,0,0,1-2.524-2.524V4.071A4.072,4.072,0,0,0,276.014,0h1.068a7.251,7.251,0,0,1,5.127,2.124l4.826,4.826A7.251,7.251,0,0,1,289.159,12.077Z" transform="translate(-218.259 0)" fill="#bed8fb"/>
              <g id="그룹_98" data-name="그룹 98" transform="translate(52.39 10.306)">
                <path id="패스_56" data-name="패스 56" d="M212,215.3v7.38a.576.576,0,0,0,.576.576h3.873a.576.576,0,0,0,.576-.576V215.3h1.647a.576.576,0,0,0,.408-.984l-3.68-3.68a1.256,1.256,0,0,0-1.776,0l-3.68,3.68a.576.576,0,0,0,.408.984Z" transform="translate(-208.894 -206.337)" fill="#5396ef"/>
                <path id="패스_57" data-name="패스 57" d="M197.932,154.445h8.984a1.123,1.123,0,0,0,1.123-1.123v-.031a1.123,1.123,0,0,0-1.123-1.123h-8.984a1.123,1.123,0,0,0-1.123,1.123v.031A1.123,1.123,0,0,0,197.932,154.445Z" transform="translate(-196.809 -152.167)" fill="#5396ef"/>
              </g>
            </g>
            <g id="united-states_2_" data-name="united-states (2)" transform="translate(795 145)" clip-path="url(#clip-path)">
              <path id="패스_209" data-name="패스 209" d="M14,28A14,14,0,1,0,0,14,14,14,0,0,0,14,28Z" fill="#f0f0f0"/>
              <g id="그룹_239" data-name="그룹 239" transform="translate(0.482 3.043)">
                <path id="패스_210" data-name="패스 210" d="M17.218,16.956H31.826a14.012,14.012,0,0,0-.482-3.652H17.218Z" transform="translate(-4.308 -5.999)" fill="#d80027"/>
                <path id="패스_211" data-name="패스 211" d="M17.218,7.564H29.771a14.073,14.073,0,0,0-3.23-3.652H17.218Z" transform="translate(-4.308 -3.912)" fill="#d80027"/>
                <path id="패스_212" data-name="패스 212" d="M15.51,35.13a13.94,13.94,0,0,0,8.715-3.043H6.8A13.94,13.94,0,0,0,15.51,35.13Z" transform="translate(-1.992 -10.173)" fill="#d80027"/>
                <path id="패스_213" data-name="패스 213" d="M2.193,26.346h23.89a13.915,13.915,0,0,0,1.573-3.652H.62a13.915,13.915,0,0,0,1.573,3.652Z" transform="translate(-0.62 -8.086)" fill="#d80027"/>
              </g>
              <path id="패스_214" data-name="패스 214" d="M6.485,2.186H7.761l-1.187.862.453,1.4L5.841,3.581l-1.187.862.392-1.205A14.077,14.077,0,0,0,2.33,6.265h.409l-.755.549q-.177.295-.339.6l.361,1.11-.673-.489Q1.082,8.564.875,9.12l.4,1.223H2.739L1.552,11.2l.453,1.4L.819,11.738l-.711.517A14.135,14.135,0,0,0,0,14H14V0A13.934,13.934,0,0,0,6.485,2.186ZM7.027,12.6l-1.187-.862L4.654,12.6l.453-1.4-1.187-.862H5.388l.453-1.4.453,1.4H7.761L6.574,11.2ZM6.574,7.127l.453,1.4L5.841,7.66l-1.187.862.453-1.4L3.921,6.265H5.388l.453-1.4.453,1.4H7.761ZM12.049,12.6l-1.187-.862L9.676,12.6l.453-1.4-1.187-.862h1.467l.453-1.4.453,1.4h1.467L11.6,11.2ZM11.6,7.127l.453,1.4L10.863,7.66l-1.187.862.453-1.4L8.942,6.265h1.467l.453-1.4.453,1.4h1.467Zm0-4.078.453,1.4-1.187-.862-1.187.862.453-1.4L8.942,2.186h1.467l.453-1.4.453,1.4h1.467Z" transform="translate(0)" fill="#0052b4"/>
            </g>
            <g id="south-korea_1_" data-name="south-korea (1)" transform="translate(795 73)">
              <g id="South_korea">
                <circle id="타원_16" data-name="타원 16" cx="14" cy="14" r="14" fill="#f0f0f0"/>
                <rect id="사각형_407" data-name="사각형 407" width="0.84" height="2.24" transform="translate(5.912 19.85) rotate(-33.688)"/>
                <rect id="사각형_408" data-name="사각형 408" width="0.84" height="5.227" transform="translate(5.352 16.641) rotate(-33.688)"/>
                <rect id="사각형_409" data-name="사각형 409" width="0.84" height="2.24" transform="translate(4.278 17.317) rotate(-33.688)"/>
                <rect id="사각형_410" data-name="사각형 410" width="0.84" height="5.227" transform="translate(3.181 18.041) rotate(-33.688)"/>
                <rect id="사각형_411" data-name="사각형 411" width="0.84" height="5.227" transform="translate(20.124 6.842) rotate(-33.688)"/>
                <rect id="사각형_412" data-name="사각형 412" width="0.84" height="2.24" transform="translate(19.049 7.517) rotate(-33.688)"/>
                <rect id="사각형_413" data-name="사각형 413" width="0.84" height="2.24" transform="translate(20.63 9.972) rotate(-33.692)"/>
                <rect id="사각형_414" data-name="사각형 414" width="0.84" height="2.24" transform="translate(21.221 6.118) rotate(-33.688)"/>
                <rect id="사각형_415" data-name="사각형 415" width="0.84" height="2.24" transform="translate(22.881 8.521) rotate(-33.688)"/>
                <rect id="사각형_416" data-name="사각형 416" width="2.24" height="0.84" transform="translate(20.114 21.202) rotate(-56.312)"/>
                <rect id="사각형_417" data-name="사각형 417" width="2.24" height="0.84" transform="translate(21.79 18.725) rotate(-56.312)"/>
                <rect id="사각형_418" data-name="사각형 418" width="2.24" height="0.84" transform="translate(21.239 21.902) rotate(-56.312)"/>
                <rect id="사각형_419" data-name="사각형 419" width="2.24" height="0.84" transform="translate(22.863 19.506) rotate(-56.312)"/>
                <rect id="사각형_420" data-name="사각형 420" width="2.24" height="0.84" transform="translate(18.99 20.501) rotate(-56.312)"/>
                <rect id="사각형_421" data-name="사각형 421" width="2.24" height="0.84" transform="translate(20.666 18.025) rotate(-56.312)"/>
                <rect id="사각형_422" data-name="사각형 422" width="5.227" height="0.84" transform="translate(4.279 10.676) rotate(-56.312)"/>
                <rect id="사각형_423" data-name="사각형 423" width="5.227" height="0.84" transform="translate(5.404 11.378) rotate(-56.312)"/>
                <rect id="사각형_424" data-name="사각형 424" width="5.227" height="0.84" transform="translate(3.207 9.898) rotate(-56.312)"/>
                <circle id="타원_17" data-name="타원 17" cx="5.227" cy="5.227" r="5.227" transform="translate(8.773 8.773)" fill="#ed1c24"/>
                <path id="패스_84" data-name="패스 84" d="M18.269,14.753a2.536,2.536,0,0,0-3.64,0,2.536,2.536,0,0,1-3.64,0A2.578,2.578,0,0,1,10.8,11.3a5.217,5.217,0,0,0,7.56,7.187A2.737,2.737,0,0,0,18.269,14.753Z" transform="translate(-0.629 -0.753)" fill="#0071bc"/>
              </g>
            </g>
            <g id="그룹_263" data-name="그룹 263">
              <rect id="사각형_348" data-name="사각형 348" width="2" height="12" transform="translate(163 1084) rotate(-90)" fill="#fff" opacity="0.94"/>
              <rect id="사각형_349" data-name="사각형 349" width="12" height="2" transform="translate(168 1089) rotate(-90)" fill="#fff" opacity="0.89"/>
            </g>
            <g id="그룹_238" data-name="그룹 238" transform="translate(163 1147)" opacity="0.89">
              <rect id="사각형_348-2" data-name="사각형 348" width="2" height="12" transform="translate(0 2) rotate(-90)" fill="#fff"/>
            </g>
            <path id="expand" d="M21.063,4.383V7.719a.953.953,0,0,1-1.906,0V4.383c0-.428-.05-.477-.477-.477H15.344a.953.953,0,1,1,0-1.906H18.68a2.211,2.211,0,0,1,2.383,2.383ZM7.719,2H4.383A2.211,2.211,0,0,0,2,4.383V7.719a.953.953,0,0,0,1.906,0V4.383c0-.428.05-.477.477-.477H7.719A.953.953,0,0,0,7.719,2Zm0,17.157H4.383c-.427,0-.477-.049-.477-.477V15.344a.953.953,0,1,0-1.906,0V18.68a2.211,2.211,0,0,0,2.383,2.383H7.719a.953.953,0,0,0,0-1.906ZM20.11,14.391a.953.953,0,0,0-.953.953V18.68c0,.428-.05.477-.477.477H15.344a.953.953,0,1,0,0,1.906H18.68a2.211,2.211,0,0,0,2.383-2.383V15.344A.953.953,0,0,0,20.11,14.391Z" transform="translate(160.008 922.014)" fill="#fff"/>
            <g id="vision" transform="translate(159.505 726.938)">
              <g id="그룹_189" data-name="그룹 189" transform="translate(0 0)">
                <g id="그룹_188" data-name="그룹 188">
                  <path id="패스_128" data-name="패스 128" d="M20.509,97.292C20.325,97.035,15.936,91,10.352,91S.3,97.035.114,97.292a.6.6,0,0,0,0,.7c.184.257,4.653,6.294,10.238,6.294S20.325,98.253,20.509,98A.6.6,0,0,0,20.509,97.292Zm-10.157,4.581a4.23,4.23,0,1,1,0-8.458,4.229,4.229,0,0,1,0,8.458Z" transform="translate(-0.001 -90.998)" fill="#fff"/>
                </g>
              </g>
              <g id="그룹_191" data-name="그룹 191" transform="translate(8.458 4.833)">
                <g id="그룹_190" data-name="그룹 190">
                  <path id="패스_129" data-name="패스 129" d="M211.9,211a1.814,1.814,0,1,0,0,3.625,1.812,1.812,0,1,0,0-3.625Z" transform="translate(-210.006 -210.999)" fill="#fff"/>
                </g>
              </g>
            </g>
            <g id="perspective" transform="translate(254.247 673.169)">
              <g id="그룹_194" data-name="그룹 194" transform="translate(43.306 53.21)">
                <path id="패스_137" data-name="패스 137" d="M108,108.828h8.567v8.567H108Z" transform="translate(-107.592 -108.42)" fill="none" stroke="#fff" stroke-width="0.2"/>
                <path id="패스_138" data-name="패스 138" d="M112.975,114.211h-8.567A.408.408,0,0,1,104,113.8v-8.567a.408.408,0,0,1,.408-.408h8.567a.408.408,0,0,1,.408.408V113.8A.408.408,0,0,1,112.975,114.211Zm-8.159-.816h7.751v-7.751h-7.751Z" transform="translate(-104 -104.828)" fill="#fff" stroke="#fff" stroke-width="0.2"/>
              </g>
              <g id="그룹_195" data-name="그룹 195" transform="translate(38.411 48.194)">
                <path id="패스_139" data-name="패스 139" d="M97.054,98.715H84.408A.408.408,0,0,1,84,98.307v-12.6a.408.408,0,1,1,.816,0V97.9h11.83V85.709a.408.408,0,1,1,.816,0v12.6A.408.408,0,0,1,97.054,98.715Z" transform="translate(-81.144 -82.445)" fill="#fff" stroke="#fff" stroke-width="0.2"/>
                <path id="패스_140" data-name="패스 140" d="M74.765,76.5H56.408A.408.408,0,0,1,56,76.1v-18.3a.408.408,0,1,1,.816,0V75.688H74.358V57.795a.408.408,0,1,1,.816,0V76.1A.408.408,0,0,1,74.765,76.5Z" transform="translate(-56 -57.378)" fill="#fff" stroke="#fff" stroke-width="0.2"/>
                <path id="패스_141" data-name="패스 141" d="M132.408,114.3a.408.408,0,0,1-.408-.408V105.8a.408.408,0,1,1,.816,0v8.091A.408.408,0,0,1,132.408,114.3Z" transform="translate(-124.249 -100.067)" fill="#fff" stroke="#fff" stroke-width="0.2"/>
                <path id="패스_142" data-name="패스 142" d="M160.408,114.268a.408.408,0,0,1-.408-.408V105.61a.408.408,0,0,1,.816,0v8.251A.408.408,0,0,1,160.408,114.268Z" transform="translate(-149.393 -100.038)" fill="#fff" stroke="#fff" stroke-width="0.2"/>
                <path id="패스_143" data-name="패스 143" d="M112.975,133.644h-8.567a.408.408,0,0,1,0-.816h8.567a.408.408,0,0,1,0,.816Z" transform="translate(-99.105 -125.125)" fill="#fff" stroke="#fff" stroke-width="0.2"/>
                <path id="패스_144" data-name="패스 144" d="M112.975,161.644h-8.567a.408.408,0,1,1,0-.816h8.567a.408.408,0,0,1,0,.816Z" transform="translate(-99.105 -150.269)" fill="#fff" stroke="#fff" stroke-width="0.2"/>
                <path id="패스_145" data-name="패스 145" d="M188.408,55.513a.408.408,0,0,1-.288-.7l4.822-4.847a.408.408,0,1,1,.577.577L188.7,55.394A.406.406,0,0,1,188.408,55.513Z" transform="translate(-174.538 -49.85)" fill="#fff" stroke="#fff" stroke-width="0.2"/>
                <path id="패스_146" data-name="패스 146" d="M54.29,55.513a.407.407,0,0,1-.288-.12l-4.776-4.847a.408.408,0,1,1,.577-.577l4.776,4.847a.408.408,0,0,1-.288.7Z" transform="translate(-48.987 -49.85)" fill="#fff" stroke="#fff" stroke-width="0.2"/>
                <path id="패스_147" data-name="패스 147" d="M193.11,194.212a.716.716,0,0,1-.288-.12l-4.7-4.568a.408.408,0,1,1,.577-.577l4.7,4.568a.408.408,0,0,1,0,.577A.714.714,0,0,1,193.11,194.212Z" transform="translate(-174.538 -175.414)" fill="#fff" stroke="#fff" stroke-width="0.2"/>
                <path id="패스_148" data-name="패스 148" d="M49.588,194.412a.408.408,0,0,1-.288-.7l4.713-4.768a.408.408,0,0,1,.577.577l-4.713,4.768A.406.406,0,0,1,49.588,194.412Z" transform="translate(-48.998 -175.414)" fill="#fff" stroke="#fff" stroke-width="0.2"/>
                <path id="패스_149" data-name="패스 149" d="M43.715,105.088a.4.4,0,0,1-.173-.039l-4.891-2.269a.408.408,0,1,1,.347-.738l4.891,2.269a.408.408,0,0,1-.174.777Z" transform="translate(-38.412 -96.569)" fill="#fff" stroke="#fff" stroke-width="0.2"/>
                <path id="패스_150" data-name="패스 150" d="M38.839,163.909a.408.408,0,0,1-.174-.777l4.879-2.268a.408.408,0,0,1,.347.738l-4.879,2.268A.406.406,0,0,1,38.839,163.909Z" transform="translate(-38.414 -150.267)" fill="#fff" stroke="#fff" stroke-width="0.2"/>
                <path id="패스_151" data-name="패스 151" d="M188.408,105.081a.408.408,0,0,1-.174-.777l4.736-2.309a.408.408,0,1,1,.347.738l-4.736,2.309A.405.405,0,0,1,188.408,105.081Z" transform="translate(-174.537 -96.562)" fill="#fff" stroke="#fff" stroke-width="0.2"/>
                <path id="패스_152" data-name="패스 152" d="M193.188,163.745a.4.4,0,0,1-.173-.039l-4.781-2.1a.408.408,0,1,1,.347-.738l4.781,2.1a.408.408,0,0,1-.174.777Z" transform="translate(-174.537 -150.267)" fill="#fff" stroke="#fff" stroke-width="0.2"/>
              </g>
            </g>
            <g id="location_4_" data-name="location (4)" transform="translate(338.658 704.363)">
              <path id="패스_153" data-name="패스 153" d="M37.639,26.4h-2.59a7.807,7.807,0,0,0-7.167-7.028V16.736a.723.723,0,1,0-1.445,0v2.632a7.737,7.737,0,0,0-7.09,7.027H16.736a.82.82,0,0,0,0,1.632h2.606a7.819,7.819,0,0,0,7.095,7.047v2.565a.723.723,0,1,0,1.445,0V35.075a7.89,7.89,0,0,0,7.172-7.049h2.585a.82.82,0,0,0,0-1.631ZM27.2,33.638a6.417,6.417,0,1,1,6.417-6.417A6.424,6.424,0,0,1,27.2,33.638Z" transform="translate(0)" fill="#fff"/>
              <path id="패스_154" data-name="패스 154" d="M189.75,187.007a3.238,3.238,0,1,0,3.238,3.238A3.242,3.242,0,0,0,189.75,187.007Zm0,5a1.766,1.766,0,1,1,1.766-1.766A1.768,1.768,0,0,1,189.75,192.012Z" transform="translate(-162.563 -163.036)" fill="#fff"/>
            </g>
            <path id="video" d="M20.918,6.114a1.417,1.417,0,0,0-1.512.172L16.965,8.239V7.821a3.222,3.222,0,0,0-3.572-3.572H4.821A3.222,3.222,0,0,0,1.249,7.821v7.62a3.222,3.222,0,0,0,3.572,3.572h8.572a3.222,3.222,0,0,0,3.572-3.572v-.418l2.441,1.953a1.415,1.415,0,0,0,.89.314,1.443,1.443,0,0,0,.622-.142,1.42,1.42,0,0,0,.81-1.289V7.4a1.42,1.42,0,0,0-.81-1.289Zm-5.382,9.327c0,1.5-.641,2.143-2.143,2.143H4.821c-1.5,0-2.143-.641-2.143-2.143V7.821c0-1.5.641-2.143,2.143-2.143h8.572c1.5,0,2.143.641,2.143,2.143Zm4.762.419-3.334-2.667V10.069L20.3,7.4Z" transform="translate(464.431 720.323)" fill="#fff"/>
            <g id="person-location" transform="translate(208.192 721.363)">
              <path id="패스_155" data-name="패스 155" d="M78.277,5.386a2.693,2.693,0,1,0-2.693-2.693A2.7,2.7,0,0,0,78.277,5.386Zm0-3.7a1.009,1.009,0,1,1-1.009,1.009A1.01,1.01,0,0,1,78.277,1.684Z" transform="translate(-43.603)" fill="#fff"/>
              <path id="패스_156" data-name="패스 156" d="M37.3,64.8V62.277a2.478,2.478,0,0,0,.954-1.942V56.761a2.583,2.583,0,0,0-2.634-2.522H33.743a2.583,2.583,0,0,0-2.634,2.522v3.573a2.478,2.478,0,0,0,.954,1.942V64.8c-2.384.206-5.6.793-5.6,2.461,0,2.447,6.847,2.571,8.219,2.571s8.212-.124,8.212-2.571C42.9,65.594,39.684,65.008,37.3,64.8Zm-2.615,3.42c-3.479,0-5.671-.562-6.368-.956a10.823,10.823,0,0,1,3.747-.843v.84a.843.843,0,0,0,1.684,0V61.851a.8.8,0,0,0-.446-.712.907.907,0,0,1-.508-.8V56.761a.931.931,0,0,1,.949-.909h1.878a.931.931,0,0,1,.949.909v3.573a.908.908,0,0,1-.508.8.8.8,0,0,0-.446.712v5.412a.843.843,0,0,0,1.684,0v-.84a10.8,10.8,0,0,1,3.748.843C40.353,67.659,38.162,68.222,34.685,68.222Z" transform="translate(0 -48.149)" fill="#fff"/>
            </g>
            <path id="start-point" d="M23.716,63.206,21.43,60.92a.914.914,0,1,0-1.293,1.293l.725.725L8.38,63.128a2.756,2.756,0,0,0-1.671-1.671,2.617,2.617,0,0,0-1.829,0,2.743,2.743,0,1,0,3.5,3.5l12.482-.189-.725.725a.914.914,0,0,0,1.293,1.293c2.643-2.643,2.935-2.808,2.286-3.579ZM5.794,64.956a.914.914,0,1,1,.914-.914A.915.915,0,0,1,5.794,64.956Z" transform="translate(357.006 744.771) rotate(-90)" fill="#fff"/>
            <g id="그룹_249" data-name="그룹 249">
              <g id="CIRCLE_31_" transform="translate(235 787)">
                <g id="그룹_196" data-name="그룹 196" transform="translate(0)">
                  <path id="패스_159" data-name="패스 159" d="M22.546,19.008h0a6.583,6.583,0,0,1-5.231-2.584,6.423,6.423,0,0,1-.993-5.821,6.43,6.43,0,0,1,4.087-4.27,6.342,6.342,0,0,1,2.055-.343A6.625,6.625,0,0,1,29.029,12.5a6.6,6.6,0,0,1-4.409,6.167A6.4,6.4,0,0,1,22.546,19.008Zm-.082-11.39a4.723,4.723,0,0,0-1.529.255,4.944,4.944,0,0,0-2.321,7.569,4.948,4.948,0,0,0,3.932,1.938,4.782,4.782,0,0,0,1.548-.255A4.95,4.95,0,0,0,27.4,12.5a4.975,4.975,0,0,0-4.936-4.881Z" transform="translate(-16.022 -5.989)" fill="#fff"/>
                </g>
              </g>
              <g id="LINE_70_" transform="translate(240.711 798.396)">
                <g id="그룹_197" data-name="그룹 197" transform="translate(0 0)">
                  <path id="패스_160" data-name="패스 160" d="M30.861,41.713a.815.815,0,0,1-.814-.814V34.79a.814.814,0,0,1,1.629,0V40.9A.815.815,0,0,1,30.861,41.713Z" transform="translate(-30.047 -33.976)" fill="#fff"/>
                </g>
              </g>
              <g id="LWPOLYLINE_5_" transform="translate(235.819 803.501)">
                <g id="그룹_198" data-name="그룹 198" transform="translate(0)">
                  <path id="패스_161" data-name="패스 161" d="M23.776,51.2a14.244,14.244,0,0,1-2.419-.208c-.9-.154-3.61-.623-3.3-2.48.237-1.4,2.068-1.774,2.948-1.952l.125-.025a.814.814,0,0,1,.329,1.595l-.132.027c-1.277.258-1.577.487-1.646.589.1.105.5.392,1.948.641a12.092,12.092,0,0,0,4.44-.041,4.029,4.029,0,0,0,1.716-.6c-.112-.15-.5-.358-1.629-.586l-.14-.029a.814.814,0,0,1,.329-1.595l.133.027c.881.178,2.521.509,2.9,1.779a1.45,1.45,0,0,1-.147,1.187c-.5.837-1.77,1.193-2.821,1.41a13.145,13.145,0,0,1-2.637.262Z" transform="translate(-18.034 -46.513)" fill="#fff"/>
                </g>
              </g>
            </g>
            <g id="그룹_248" data-name="그룹 248" transform="translate(25.247)">
              <rect id="사각형_428" data-name="사각형 428" width="17" height="1.5" transform="translate(271.996 803.263) rotate(-45)" fill="#fff"/>
              <g id="타원_19" data-name="타원 19" transform="translate(281.895 790.536) rotate(-45)" fill="none" stroke="#fff" stroke-width="1.5">
                <circle cx="2.5" cy="2.5" r="2.5" stroke="none"/>
                <circle cx="2.5" cy="2.5" r="1.75" fill="none"/>
              </g>
              <g id="타원_20" data-name="타원 20" transform="translate(267.753 804.678) rotate(-45)" fill="none" stroke="#fff" stroke-width="1.5">
                <circle cx="2.5" cy="2.5" r="2.5" stroke="none"/>
                <circle cx="2.5" cy="2.5" r="1.75" fill="none"/>
              </g>
            </g>
            <g id="그룹_247" data-name="그룹 247" transform="translate(55.14)">
              <rect id="사각형_428-2" data-name="사각형 428" width="12.569" height="1.5" transform="translate(307.012 790.75)" fill="#fff"/>
              <g id="타원_19-2" data-name="타원 19" transform="translate(318.86 789)" fill="none" stroke="#fff" stroke-width="1.5">
                <circle cx="2.5" cy="2.5" r="2.5" stroke="none"/>
                <circle cx="2.5" cy="2.5" r="1.75" fill="none"/>
              </g>
              <g id="타원_20-2" data-name="타원 20" transform="translate(302.86 789)" fill="none" stroke="#fff" stroke-width="1.5">
                <circle cx="2.5" cy="2.5" r="2.5" stroke="none"/>
                <circle cx="2.5" cy="2.5" r="1.75" fill="none"/>
              </g>
              <path id="패스_184" data-name="패스 184" d="M1.913,2.524,18.539.133l.006,1.67L1.918,4.194Z" transform="translate(303.561 800.772) rotate(-30)" fill="#fff"/>
              <g id="그룹_218" data-name="그룹 218" transform="translate(787.86 -766.703) rotate(90)">
                <g id="타원_19-3" data-name="타원 19" transform="translate(1568 480)" fill="none" stroke="#fff" stroke-width="1.5">
                  <circle cx="2.5" cy="2.5" r="2.5" stroke="none"/>
                  <circle cx="2.5" cy="2.5" r="1.75" fill="none"/>
                </g>
              </g>
              <path id="start-point-2" data-name="start-point" d="M25.682,63.369l-2.594-2.286a1.139,1.139,0,0,0-1.467,0,.84.84,0,0,0,0,1.293l.823.725H9.076c0,.765.006.7.006,1.665H22.449l-.823.725a.84.84,0,0,0,0,1.293,1.139,1.139,0,0,0,1.467,0c3-2.643,3.113-2.828,2.588-3.415Z" transform="translate(297.937 739.863)" fill="#fff"/>
            </g>
            <g id="그룹_250" data-name="그룹 250" transform="translate(92.471)">
              <path id="radius" d="M17.427,4.327A2.195,2.195,0,0,0,14.4,1.3,9.509,9.509,0,0,0,9.364,0,9.264,9.264,0,0,0,0,9.364a9.264,9.264,0,0,0,9.364,9.364,9.264,9.264,0,0,0,9.364-9.364A9.509,9.509,0,0,0,17.427,4.327ZM16.088,2.639a.732.732,0,1,1-1.035,0A.731.731,0,0,1,16.088,2.639ZM9.364,17.264a7.816,7.816,0,0,1-7.9-7.9,7.816,7.816,0,0,1,7.9-7.9,8.17,8.17,0,0,1,4.125,1,2.2,2.2,0,0,0,.1,1.642L10.309,7.383a2.2,2.2,0,1,0,1.034,1.035l3.281-3.281a2.2,2.2,0,0,0,1.642.1,8.17,8.17,0,0,1,1,4.125,7.816,7.816,0,0,1-7.9,7.9Zm.732-7.9a.732.732,0,1,1-.732-.732A.732.732,0,0,1,10.1,9.364Z" transform="translate(587.529 788)" fill="#fff"/>
            </g>
            <g id="그룹_243" data-name="그룹 243" transform="translate(167.655)">
              <path id="angle_1_" data-name="angle (1)" d="M18.013,33.686a2.132,2.132,0,0,0-2.007,1.419H11.327A9.157,9.157,0,0,0,9.7,30.542,9.322,9.322,0,0,0,8.72,29.36l4-4.423A2.132,2.132,0,1,0,11.651,24l-4,4.423a9.21,9.21,0,0,0-2.2-1.215l-.512,1.324a7.7,7.7,0,0,1,1.767.967l-3.8,4.338a2.128,2.128,0,1,0,1.22,2.687H9.9a7.754,7.754,0,0,1-.412,1.892l1.338.473a9.172,9.172,0,0,0,.5-2.365h4.68a2.129,2.129,0,1,0,2.007-2.838ZM9.9,35.106H4.136a2.119,2.119,0,0,0-.152-.333l3.793-4.334A7.869,7.869,0,0,1,9.9,35.106Zm3.6-12.856a.71.71,0,1,1-.71.71A.71.71,0,0,1,13.506,22.25ZM2.129,36.525a.71.71,0,1,1,.71-.71A.71.71,0,0,1,2.129,36.525Zm15.884,0a.71.71,0,1,1,.71-.71A.71.71,0,0,1,18.013,36.525Z" transform="translate(446.345 767.17)" fill="#fff"/>
            </g>
            <g id="그룹_246" data-name="그룹 246" transform="translate(84.977)">
              <g id="타원_23" data-name="타원 23" transform="translate(339.023 802.109)" fill="none" stroke="#fff" stroke-width="1.5">
                <circle cx="2.5" cy="2.5" r="2.5" stroke="none"/>
                <circle cx="2.5" cy="2.5" r="1.75" fill="none"/>
              </g>
              <g id="그룹_225" data-name="그룹 225" transform="translate(-1348.14 399.735)">
                <g id="타원_21" data-name="타원 21" transform="translate(1687.164 389.265)" fill="none" stroke="#fff" stroke-width="1.5">
                  <circle cx="2.5" cy="2.5" r="2.5" stroke="none"/>
                  <circle cx="2.5" cy="2.5" r="1.75" fill="none"/>
                </g>
                <g id="타원_22" data-name="타원 22" transform="translate(1701.711 389.265)" fill="none" stroke="#fff" stroke-width="1.5">
                  <circle cx="2.5" cy="2.5" r="2.5" stroke="none"/>
                  <circle cx="2.5" cy="2.5" r="1.75" fill="none"/>
                </g>
                <g id="타원_24" data-name="타원 24" transform="translate(1701.711 402.374)" fill="none" stroke="#fff" stroke-width="1.5">
                  <circle cx="2.5" cy="2.5" r="2.5" stroke="none"/>
                  <circle cx="2.5" cy="2.5" r="1.75" fill="none"/>
                </g>
                <rect id="사각형_431" data-name="사각형 431" width="11.558" height="1.5" transform="translate(1691.153 404.171)" fill="#fff"/>
                <rect id="사각형_432" data-name="사각형 432" width="11.558" height="1.5" transform="translate(1691.153 391.124)" fill="#fff"/>
                <rect id="사각형_431-2" data-name="사각형 431" width="9.569" height="1.5" transform="translate(1690.414 393.613) rotate(90)" fill="#fff"/>
                <rect id="사각형_432-2" data-name="사각형 432" width="9.887" height="1.5" transform="translate(1704.961 393.613) rotate(90)" fill="#fff"/>
              </g>
            </g>
            <g id="그룹_245" data-name="그룹 245" transform="translate(113.727)">
              <g id="타원_23-2" data-name="타원 23" transform="translate(376.773 802.226)" fill="none" stroke="#fff" stroke-width="1.5">
                <circle cx="2.5" cy="2.5" r="2.5" stroke="none"/>
                <circle cx="2.5" cy="2.5" r="1.75" fill="none"/>
              </g>
              <g id="타원_21-2" data-name="타원 21" transform="translate(374.273 788)" fill="none" stroke="#fff" stroke-width="1.5">
                <circle cx="2.5" cy="2.5" r="2.5" stroke="none"/>
                <circle cx="2.5" cy="2.5" r="1.75" fill="none"/>
              </g>
              <g id="타원_22-2" data-name="타원 22" transform="translate(390.321 789.31)" fill="none" stroke="#fff" stroke-width="1.5">
                <circle cx="2.5" cy="2.5" r="2.5" stroke="none"/>
                <circle cx="2.5" cy="2.5" r="1.75" fill="none"/>
              </g>
              <g id="타원_24-2" data-name="타원 24" transform="translate(388.317 799.044)" fill="none" stroke="#fff" stroke-width="1.5">
                <circle cx="2.5" cy="2.5" r="2.5" stroke="none"/>
                <circle cx="2.5" cy="2.5" r="1.75" fill="none"/>
              </g>
              <rect id="사각형_431-3" data-name="사각형 431" width="8.557" height="1.5" transform="matrix(0.961, -0.276, 0.276, 0.961, 380.597, 803.765)" fill="#fff"/>
              <rect id="사각형_431-4" data-name="사각형 431" width="10.569" height="1.5" transform="translate(377.837 792.012) rotate(81)" fill="#fff"/>
              <rect id="사각형_432-3" data-name="사각형 432" width="6.62" height="1.5" transform="translate(393.005 794.149) rotate(99)" fill="#fff"/>
              <g id="그룹_227" data-name="그룹 227" transform="translate(-1324.662 308.943) rotate(3)">
                <rect id="사각형_432-4" data-name="사각형 432" width="1.888" height="1.5" transform="translate(1733.069 391.124)" fill="#fff"/>
                <rect id="사각형_433" data-name="사각형 433" width="2.844" height="1.5" transform="translate(1726.069 391.124)" fill="#fff"/>
                <rect id="사각형_434" data-name="사각형 434" width="1.888" height="1.5" transform="translate(1730.069 391.124)" fill="#fff"/>
                <rect id="사각형_435" data-name="사각형 435" width="2.817" height="1.5" transform="translate(1736.069 391.124)" fill="#fff"/>
              </g>
            </g>
            <g id="그룹_244" data-name="그룹 244" transform="translate(139.509)">
              <path id="path2434" d="M9.01,292.493a.816.816,0,0,0-.556.238l-2.291,2.286a.81.81,0,0,0,1.146,1.145l1.711-1.711,1.719,1.711a.808.808,0,1,0,1.14-1.145l-2.286-2.286A.808.808,0,0,0,9.01,292.493Zm0,3.222a.809.809,0,0,0-.794.824v9.468a.809.809,0,1,0,1.618,0v-9.468a.808.808,0,0,0-.824-.824Zm2.362,10.292a.808.808,0,0,0-.581.253l-1.719,1.719L7.36,306.259a.811.811,0,1,0-1.146,1.146L8.5,309.691a.808.808,0,0,0,1.14,0l2.286-2.286a.808.808,0,0,0-.559-1.4Z" transform="translate(412.812 498.086)" fill="#fff"/>
            </g>
            <g id="그룹_256" data-name="그룹 256" transform="translate(1.668 1.328)">
              <g id="move_2_" data-name="move (2)" transform="translate(234.658 858.752)">
                <g id="그룹_200" data-name="그룹 200" transform="translate(6.801 0)">
                  <g id="그룹_199" data-name="그룹 199">
                    <path id="패스_162" data-name="패스 162" d="M179.148,2.471,176.835.159a.565.565,0,0,0-.784,0l-2.265,2.265a.544.544,0,0,0,0,.769l.292.292a.556.556,0,0,0,.767,0l.867-.869V5.809a.14.14,0,0,0,.007.027.545.545,0,0,0,.541.5h.413a.546.546,0,0,0,.546-.543V2.663l.867.869a.543.543,0,0,0,.768,0l.292-.292A.544.544,0,0,0,179.148,2.471Z" transform="translate(-173.627 0)" fill="#fff"/>
                  </g>
                </g>
                <g id="그룹_202" data-name="그룹 202" transform="translate(6.801 12.969)">
                  <g id="그룹_201" data-name="그룹 201">
                    <path id="패스_163" data-name="패스 163" d="M179.142,333.663l-.292-.293a.556.556,0,0,0-.768,0l-.867.869v-3.115a.557.557,0,0,0-.546-.555h-.413a.55.55,0,0,0-.541.5.218.218,0,0,0-.007.033v3.181l-.867-.869a.557.557,0,0,0-.768,0l-.292.292a.545.545,0,0,0,0,.769l2.265,2.265a.535.535,0,0,0,.379.158h.02a.537.537,0,0,0,.384-.158l2.312-2.312A.544.544,0,0,0,179.142,333.663Z" transform="translate(-173.622 -330.569)" fill="#fff"/>
                  </g>
                </g>
                <g id="그룹_204" data-name="그룹 204" transform="translate(0 6.817)">
                  <g id="그룹_203" data-name="그룹 203">
                    <path id="패스_164" data-name="패스 164" d="M6.046,175.841h-3.1l.869-.864a.54.54,0,0,0,0-.765l-.292-.291a.544.544,0,0,0-.769,0L.438,176.233a.565.565,0,0,0,0,.784L2.7,179.282a.544.544,0,0,0,.769,0l.292-.292a.546.546,0,0,0,0-.77l-.869-.87H6.063a.224.224,0,0,0,.034,0,.548.548,0,0,0,.506-.538v-.413A.563.563,0,0,0,6.046,175.841Z" transform="translate(-0.28 -173.761)" fill="#fff"/>
                  </g>
                </g>
                <g id="그룹_206" data-name="그룹 206" transform="translate(12.958 6.817)">
                  <g id="그룹_205" data-name="그룹 205">
                    <path id="패스_165" data-name="패스 165" d="M336.735,176.244l-2.313-2.312a.544.544,0,0,0-.769,0l-.292.292a.539.539,0,0,0-.159.384.528.528,0,0,0,.159.38l.869.864h-3.119a.549.549,0,0,0-.541.553v.413a.54.54,0,0,0,.5.538.117.117,0,0,0,.025,0h3.185l-.869.87a.546.546,0,0,0,0,.77l.292.292a.544.544,0,0,0,.769,0l2.265-2.265a.565.565,0,0,0,0-.784Z" transform="translate(-330.571 -173.773)" fill="#fff"/>
                  </g>
                </g>
                <g id="그룹_208" data-name="그룹 208" transform="translate(8.132 8.142)">
                  <g id="그룹_207" data-name="그룹 207">
                    <path id="패스_166" data-name="패스 166" d="M209.064,207.541a1.509,1.509,0,1,0,1.509,1.509A1.51,1.51,0,0,0,209.064,207.541Z" transform="translate(-207.555 -207.541)" fill="#fff"/>
                  </g>
                </g>
              </g>
            </g>
            <path id="합치기_1" data-name="합치기 1" d="M14.157,16.279a3.58,3.58,0,0,1,.822-1.93c.366-.546.728-.988.744-1.006a.719.719,0,0,1,1.111,0c.014.019.376.46.742,1.006a3.57,3.57,0,0,1,.823,1.93,2.12,2.12,0,1,1-4.241,0Zm2.023-1.14a3.1,3.1,0,0,0-.585,1.14.683.683,0,0,0,1.367,0,3.044,3.044,0,0,0-.586-1.141c-.031-.049-.065-.1-.1-.143C16.245,15.044,16.213,15.091,16.18,15.14ZM4.6,16.423.842,12.679a2.875,2.875,0,0,1,0-4.067L6.711,2.766,5.171,1.228A.719.719,0,0,1,6.187.21l8.674,8.664a2.88,2.88,0,0,1,2.1,2.77.719.719,0,0,1-1.437,0,1.439,1.439,0,0,0-.785-1.281L8.66,16.423a2.879,2.879,0,0,1-4.065,0Zm8.066-7.714L7.727,3.782,2.782,8.709Z" transform="translate(673 859.752)" fill="#fff"/>
            <g id="그룹_254" data-name="그룹 254" transform="translate(30.817 1.155)">
              <g id="Layer_2" data-name="Layer 2" transform="matrix(0.574, 0.819, -0.819, 0.574, 283.026, 854.753)">
                <path id="패스_190" data-name="패스 190" d="M1.052.066a.719.719,0,0,0-.92.287L.1.418a.718.718,0,0,0,1.243.719l.036-.065A.719.719,0,0,0,1.052.066Z" transform="translate(16.052 14.813)" fill="#fff"/>
                <path id="패스_191" data-name="패스 191" d="M.528,1.476a.719.719,0,0,0,.9-.568V.844A.719.719,0,0,0,.01.592V.664a.719.719,0,0,0,.517.812Z" transform="translate(17.087 11.987)" fill="#fff"/>
                <path id="패스_192" data-name="패스 192" d="M.011.845V.917A.719.719,0,0,0,1.427.665V.594A.719.719,0,1,0,.011.845Z" transform="translate(17.086 8.982)" fill="#fff"/>
                <path id="패스_193" data-name="패스 193" d="M1.433.415A.719.719,0,0,0,.542.041H.477A.718.718,0,1,0,.966,1.392h.065a.719.719,0,0,0,.4-.977Z" transform="translate(11.503 18.625)" fill="#fff"/>
                <path id="패스_194" data-name="패스 194" d="M.476,1.394H.54A.718.718,0,1,0,1.029.043H.964A.718.718,0,1,0,.476,1.394Z" transform="translate(11.49 2.417)" fill="#fff"/>
                <path id="패스_195" data-name="패스 195" d="M.13,1.138A.72.72,0,0,0,1.373.412L1.338.355a.718.718,0,0,0-1.243.719Z" transform="translate(16.047 6.173)" fill="#fff"/>
                <path id="패스_196" data-name="패스 196" d="M.309,1.315A.72.72,0,1,0,1.229.209L1.178.165a.72.72,0,0,0-.92,1.107Z" transform="translate(14.101 3.883)" fill="#fff"/>
                <path id="패스_197" data-name="패스 197" d="M1.276.211A.719.719,0,0,0,.306.168l-.05.05a.717.717,0,0,0,.92,1.1l.057-.043A.719.719,0,0,0,1.276.211Z" transform="translate(14.111 17.112)" fill="#fff"/>
                <path id="패스_198" data-name="패스 198" d="M8.538,20.557a.723.723,0,0,0,.151-1.437A7.906,7.906,0,0,1,8.2,3.423L7.273,4.7a.716.716,0,0,0,1.164.834L9.874,3.553a1.5,1.5,0,0,0,.252-1.143,1.524,1.524,0,0,0-.654-.97L7.409.117a.725.725,0,1,0-.791,1.215L7.7,2.051a9.343,9.343,0,0,0,.834,18.506Z" fill="#fff"/>
              </g>
            </g>
            <g id="그룹_253" data-name="그룹 253" transform="translate(133.76)">
              <g id="그룹_231" data-name="그룹 231" transform="translate(-1142.414 389.547)">
                <path id="합치기_3" data-name="합치기 3" d="M6.38,14.942,12.1,11.408,12.1,14.125,6.37,17.661ZM5.8,17.527v0Zm0,0Zm0,0L.013,13.98l0-2.711L5.8,14.816c0,.157,0,2.541,0,2.711ZM.011,10.7l0-2.712L5.8,11.538l-.006,2.711Zm6.362.824L12.11,7.986,12.105,10.7,6.368,14.243ZM5.8,10.835.016,7.288l0-3.119L5.806,7.717c0,.164-.007,3.127-.007,3.127ZM6.38,7.717l5.738-3.543-.006,3.106L6.375,10.821ZM.309,3.64,6.049.1l5.782,3.547L6.092,7.187Z" transform="translate(1556.642 471.356)" fill="#fff"/>
              </g>
              <g id="up-arrow_1_" data-name="up-arrow (1)" transform="translate(312.934 862.451)">
                <path id="패스_205" data-name="패스 205" d="M118.252,0l-3.493,4.8h2.4V8.989h2.183V4.8h2.4Z" transform="translate(0)" fill="#fff"/>
                <path id="패스_206" data-name="패스 206" d="M213.609,335.448H212.3a.437.437,0,1,0,0,.873h1.31a.437.437,0,0,0,0-.873" transform="translate(-94.701 -325.152)" fill="#fff"/>
                <path id="패스_207" data-name="패스 207" d="M213.609,406.069H212.3a.437.437,0,1,0,0,.873h1.31a.437.437,0,0,0,0-.873" transform="translate(-94.701 -394.026)" fill="#fff"/>
                <path id="패스_208" data-name="패스 208" d="M213.609,476.69H212.3a.437.437,0,1,0,0,.873h1.31a.437.437,0,1,0,0-.873" transform="translate(-94.701 -462.901)" fill="#fff"/>
              </g>
              <path id="합치기_3-2" data-name="합치기 3" d="M6.38,14.942,12.1,11.408,12.1,14.125,6.37,17.661ZM5.8,17.527v0Zm0,0Zm0,0L.013,13.98l0-2.711L5.8,14.816c0,.157,0,2.541,0,2.711ZM.011,10.7l0-2.712L5.8,11.538l-.006,2.711Zm6.362.824L12.11,7.986,12.105,10.7,6.368,14.243ZM5.8,10.835.016,7.288l0-3.119L5.806,7.717c0,.164-.007,3.127-.007,3.127ZM6.38,7.717l5.738-3.543-.006,3.106L6.375,10.821ZM.309,3.64,6.049.1l5.782,3.547L6.092,7.187Z" transform="translate(476.229 860.903)" fill="#fff"/>
            </g>
            <g id="그룹_252" data-name="그룹 252" transform="translate(158.856)">
              <g id="up-arrow_1_2" data-name="up-arrow (1)" transform="translate(586.343 877.113) rotate(180)">
                <path id="패스_205-2" data-name="패스 205" d="M118.252,0l-3.493,4.8h2.4V8.989h2.183V4.8h2.4Z" transform="translate(0)" fill="#fff"/>
                <path id="패스_206-2" data-name="패스 206" d="M213.609,335.448H212.3a.437.437,0,1,0,0,.873h1.31a.437.437,0,0,0,0-.873" transform="translate(-94.701 -325.152)" fill="#fff"/>
                <path id="패스_207-2" data-name="패스 207" d="M213.609,406.069H212.3a.437.437,0,1,0,0,.873h1.31a.437.437,0,0,0,0-.873" transform="translate(-94.701 -394.026)" fill="#fff"/>
                <path id="패스_208-2" data-name="패스 208" d="M213.609,476.69H212.3a.437.437,0,1,0,0,.873h1.31a.437.437,0,1,0,0-.873" transform="translate(-94.701 -462.901)" fill="#fff"/>
              </g>
            </g>
            <g id="그룹_36" data-name="그룹 36" transform="translate(462.273 318.229)">
              <path id="패스_29" data-name="패스 29" d="M230.91,3.06a.51.51,0,0,1-.51-.51V.51a.51.51,0,0,1,1.02,0V2.55A.51.51,0,0,1,230.91,3.06Z" transform="translate(-230.4 0)" fill="#f3b853"/>
            </g>
            <g id="그룹_37" data-name="그룹 37" transform="translate(464.077 319.573)">
              <path id="패스_30" data-name="패스 30" d="M321.41,69.945a.51.51,0,0,1-.361-.871l1.443-1.443a.51.51,0,0,1,.721.721L321.771,69.8A.509.509,0,0,1,321.41,69.945Z" transform="translate(-320.9 -67.483)" fill="#f3b853"/>
            </g>
            <g id="그룹_38" data-name="그룹 38" transform="translate(464.824 322.819)">
              <path id="패스_31" data-name="패스 31" d="M360.95,231.42h-2.04a.51.51,0,1,1,0-1.02h2.04a.51.51,0,0,1,0,1.02Z" transform="translate(-358.4 -230.4)" fill="#f3b853"/>
            </g>
            <g id="그룹_39" data-name="그룹 39" transform="translate(464.077 324.622)">
              <path id="패스_32" data-name="패스 32" d="M322.853,323.373a.508.508,0,0,1-.361-.149l-1.443-1.443a.51.51,0,0,1,.721-.721l1.443,1.443a.51.51,0,0,1-.361.871Z" transform="translate(-320.9 -320.911)" fill="#f3b853"/>
            </g>
            <g id="그룹_40" data-name="그룹 40" transform="translate(462.273 325.369)">
              <path id="패스_33" data-name="패스 33" d="M230.91,361.46a.51.51,0,0,1-.51-.51v-2.04a.51.51,0,1,1,1.02,0v2.04A.51.51,0,0,1,230.91,361.46Z" transform="translate(-230.4 -358.4)" fill="#f3b853"/>
            </g>
            <g id="그룹_41" data-name="그룹 41" transform="translate(459.028 324.622)">
              <path id="패스_34" data-name="패스 34" d="M67.985,323.373a.51.51,0,0,1-.361-.871l1.443-1.443a.51.51,0,0,1,.721.721l-1.443,1.443A.508.508,0,0,1,67.985,323.373Z" transform="translate(-67.475 -320.911)" fill="#f3b853"/>
            </g>
            <g id="그룹_42" data-name="그룹 42" transform="translate(457.683 322.819)">
              <path id="패스_35" data-name="패스 35" d="M2.55,231.42H.51a.51.51,0,0,1,0-1.02H2.55a.51.51,0,0,1,0,1.02Z" transform="translate(0 -230.4)" fill="#f3b853"/>
            </g>
            <g id="그룹_43" data-name="그룹 43" transform="translate(459.028 319.573)">
              <path id="패스_36" data-name="패스 36" d="M69.428,69.945a.509.509,0,0,1-.361-.149l-1.443-1.443a.51.51,0,0,1,.721-.721l1.443,1.443a.51.51,0,0,1-.361.871Z" transform="translate(-67.475 -67.483)" fill="#f3b853"/>
            </g>
            <g id="그룹_44" data-name="그룹 44" transform="translate(462.273 318.229)">
              <path id="패스_37" data-name="패스 37" d="M230.91,3.06a.51.51,0,0,1-.51-.51V.51a.51.51,0,0,1,1.02,0V2.55A.51.51,0,0,1,230.91,3.06Z" transform="translate(-230.4 0)" fill="#f3b853"/>
            </g>
            <g id="sun_4_" data-name="sun (4)" transform="translate(159.619 1017.65)">
              <g id="그룹_266" data-name="그룹 266">
                <g id="그룹_265" data-name="그룹 265">
                  <path id="패스_217" data-name="패스 217" d="M84.4,76.79a5.411,5.411,0,0,0-3.8-1.59,5.294,5.294,0,0,0-3.8,1.59,5.393,5.393,0,0,0,3.8,9.2,5.294,5.294,0,0,0,3.8-1.59,5.411,5.411,0,0,0,1.59-3.8A5.294,5.294,0,0,0,84.4,76.79Z" transform="translate(-69.864 -69.864)" fill="#fff"/>
                  <path id="패스_218" data-name="패스 218" d="M141.538,3.662a.751.751,0,0,0,.738-.738V.738a.738.738,0,0,0-1.476,0V2.924A.751.751,0,0,0,141.538,3.662Z" transform="translate(-130.808)" fill="#fff"/>
                  <path id="패스_219" data-name="패스 219" d="M220.235,44.2l1.561-1.561a.723.723,0,0,0-1.022-1.022l-1.561,1.561a.723.723,0,1,0,1.022,1.022Z" transform="translate(-203.459 -38.462)" fill="#fff"/>
                  <path id="패스_220" data-name="패스 220" d="M253.724,140.8h-2.186a.738.738,0,1,0,0,1.476h2.186a.738.738,0,0,0,0-1.476Z" transform="translate(-233.002 -130.808)" fill="#fff"/>
                  <path id="패스_221" data-name="패스 221" d="M219.835,218.813a.723.723,0,1,0-1.022,1.022l1.561,1.561a.723.723,0,1,0,1.022-1.022Z" transform="translate(-203.087 -203.087)" fill="#fff"/>
                  <path id="패스_222" data-name="패스 222" d="M141.538,250.8a.751.751,0,0,0-.738.738v2.186a.738.738,0,1,0,1.476,0v-2.186A.752.752,0,0,0,141.538,250.8Z" transform="translate(-130.808 -233.002)" fill="#fff"/>
                  <path id="패스_223" data-name="패스 223" d="M42.774,218.813l-1.561,1.561a.723.723,0,1,0,1.022,1.022l1.561-1.561a.723.723,0,1,0-1.022-1.022Z" transform="translate(-38.09 -203.087)" fill="#fff"/>
                  <path id="패스_224" data-name="패스 224" d="M3.662,141.538a.751.751,0,0,0-.738-.738H.738a.738.738,0,0,0,0,1.476H2.924A.751.751,0,0,0,3.662,141.538Z" transform="translate(0 -130.808)" fill="#fff"/>
                  <path id="패스_225" data-name="패스 225" d="M42.774,44.2A.723.723,0,1,0,43.8,43.174l-1.561-1.561a.723.723,0,0,0-1.022,1.022Z" transform="translate(-38.09 -38.462)" fill="#fff"/>
                </g>
              </g>
            </g>
            <g id="Layer_2-2" data-name="Layer 2" transform="translate(160 965.242)">
              <path id="패스_226" data-name="패스 226" d="M21.137,18.559a1.884,1.884,0,0,1-.51,1.3,1.7,1.7,0,0,1-1.233.537H3.791a1.743,1.743,0,0,1-1.267-.551A1.935,1.935,0,0,1,2,18.509a1.991,1.991,0,0,1,.191-.842L7.228,7.051A1.818,1.818,0,0,1,8.563,6.023a1.752,1.752,0,0,1,1.57.545l3.93,7.687a.693.693,0,0,0,.406.352.653.653,0,0,0,.523-.056.707.707,0,0,0,.329-.426.748.748,0,0,0-.055-.546l-1.278-2.5a1.989,1.989,0,0,1,1.671-.611,2.041,2.041,0,0,1,1.5.985l3.7,6.125A1.924,1.924,0,0,1,21.137,18.559Z" transform="translate(0)" fill="#fff"/>
            </g>
            <g id="Layer_2-3" data-name="Layer 2" transform="translate(233 965.242)" opacity="0.34">
              <path id="패스_226-2" data-name="패스 226" d="M21.137,18.559a1.884,1.884,0,0,1-.51,1.3,1.7,1.7,0,0,1-1.233.537H3.791a1.743,1.743,0,0,1-1.267-.551A1.935,1.935,0,0,1,2,18.509a1.991,1.991,0,0,1,.191-.842L7.228,7.051A1.818,1.818,0,0,1,8.563,6.023a1.752,1.752,0,0,1,1.57.545l3.93,7.687a.693.693,0,0,0,.406.352.653.653,0,0,0,.523-.056.707.707,0,0,0,.329-.426.748.748,0,0,0-.055-.546l-1.278-2.5a1.989,1.989,0,0,1,1.671-.611,2.041,2.041,0,0,1,1.5.985l3.7,6.125A1.924,1.924,0,0,1,21.137,18.559Z" transform="translate(0)" fill="#fff"/>
            </g>
            <path id="ruler_6_" data-name="ruler (6)" d="M21.223,7.516,17.889,4.182a.942.942,0,0,0-1.328,0l-.868.868c.258.247.8.806,1.058,1.058a.313.313,0,1,1-.443.443c-.266-.248-.8-.811-1.058-1.058L14.236,6.507l1.979,1.979a.313.313,0,1,1-.443.443L13.794,6.949,12.78,7.963l1.058,1.058a.313.313,0,1,1-.443.443c-.26-.254-.8-.807-1.058-1.058L11.321,9.422,13.3,11.4a.313.313,0,1,1-.443.443L10.878,9.865,9.865,10.878l1.058,1.058a.313.313,0,1,1-.443.443c-.255-.259-.806-.8-1.058-1.058L8.406,12.337l1.979,1.979a.313.313,0,0,1-.443.443L7.963,12.78,6.949,13.794c.249.256.8.8,1.058,1.058a.313.313,0,1,1-.443.443L6.507,14.237,5.493,15.25l1.979,1.979a.313.313,0,1,1-.443.443c-.327-.325-1.68-1.681-1.979-1.979l-.868.868a.942.942,0,0,0,0,1.328l3.334,3.334a.942.942,0,0,0,1.328,0L21.223,8.844a.942.942,0,0,0,0-1.328Z" transform="translate(156.092 784.686)" fill="#fff"/>
            <g id="dimensions" transform="translate(134.257 857.753)">
              <path id="패스_237" data-name="패스 237" d="M34.511,169.566l-5.738-3.118a.816.816,0,0,0-1.205.717V174.4a.817.817,0,0,0,.413.709l5.738,3.262a.816.816,0,0,0,1.219-.709v-7.377A.815.815,0,0,0,34.511,169.566Z" transform="translate(0 -160.508)" fill="#fff"/>
              <path id="패스_238" data-name="패스 238" d="M68.376,4.058a.813.813,0,0,0-.44-.723L61.679.091a.816.816,0,0,0-.755,0L54.759,3.337a.816.816,0,0,0,0,1.443l6.165,3.264a.815.815,0,0,0,.759,0l6.257-3.264a.813.813,0,0,0,.438-.724Z" transform="translate(-25.816 0)" fill="#fff"/>
              <path id="패스_239" data-name="패스 239" d="M281.341,166.461a.809.809,0,0,0-.806-.016l-5.738,3.118a.815.815,0,0,0-.426.717v7.377a.814.814,0,0,0,1.219.709l5.738-3.262a.817.817,0,0,0,.412-.709v-7.234A.809.809,0,0,0,281.341,166.461Z" transform="translate(-238.139 -160.506)" fill="#fff"/>
            </g>
            <g id="trash_2_" data-name="trash (2)" transform="translate(479 853.458)">
              <path id="패스_241" data-name="패스 241" d="M25.485,10.081H22.364V9.734A1.736,1.736,0,0,0,20.63,8H18.549a1.736,1.736,0,0,0-1.734,1.734v.347H13.694a.694.694,0,0,0-.694.694v1.04a.694.694,0,0,0,.694.694H25.485a.694.694,0,0,0,.694-.694v-1.04A.694.694,0,0,0,25.485,10.081ZM18.2,9.734a.347.347,0,0,1,.347-.347H20.63a.347.347,0,0,1,.347.347v.347H18.2Z" fill="#fff"/>
              <path id="패스_242" data-name="패스 242" d="M26.673,23.227A.694.694,0,0,0,26.159,23H15.894a.694.694,0,0,0-.691.76l.852,8.909a2.023,2.023,0,0,0,2.073,1.776h5.8A2.023,2.023,0,0,0,26,32.669l.852-8.909A.694.694,0,0,0,26.673,23.227Zm-7.267,9.482h-.044a.694.694,0,0,1-.692-.65l-.416-6.589a.694.694,0,1,1,1.384-.087l.416,6.589A.694.694,0,0,1,19.406,32.709Zm3.978-.649a.694.694,0,0,1-.692.65h-.044A.694.694,0,0,1,22,31.973l.416-6.589a.694.694,0,0,1,1.384.087Z" transform="translate(-1.437 -9.798)" fill="#fff"/>
            </g>
            <g id="Layer_22" transform="translate(732.12 855.731)">
              <path id="패스_243" data-name="패스 243" d="M12.608,17.148,6.115,13.4v7.169a.58.58,0,0,0,.29.5l6.2,3.581Z" transform="translate(-1.391 -3.269)" fill="#fff"/>
              <path id="패스_244" data-name="패스 244" d="M13.51,14.187,20,10.44,13.8,6.862a.582.582,0,0,0-.58,0l-6.2,3.578Z" transform="translate(-1.643 -1.435)" fill="#fff"/>
              <path id="패스_245" data-name="패스 245" d="M16.9,17.148v7.5l6.2-3.581a.58.58,0,0,0,.29-.5V13.4Z" transform="translate(-4.382 -3.269)" fill="#fff"/>
              <path id="패스_246" data-name="패스 246" d="M15.75,4.267a1.662,1.662,0,0,1,.65.147V2.261a.65.65,0,1,0-1.3,0V4.414A1.664,1.664,0,0,1,15.75,4.267Z" transform="translate(-3.883)" fill="#fff"/>
              <path id="패스_247" data-name="패스 247" d="M29.316,25l-2.253-1.3a1.647,1.647,0,0,1-.7,1.1l2.305,1.335A.65.65,0,0,0,29.316,25Z" transform="translate(-7.006 -6.126)" fill="#fff"/>
              <path id="패스_248" data-name="패스 248" d="M3.677,23.7,1.424,25a.65.65,0,0,0,.652,1.126L4.382,24.8A1.646,1.646,0,0,1,3.677,23.7Z" transform="translate(0 -6.126)" fill="#fff"/>
            </g>
          </g>
          <g id="Layer_2-4" data-name="Layer 2" transform="translate(429.827 862)">
            <rect id="사각형_438" data-name="사각형 438" width="11.654" height="13.025" rx="2.368" transform="translate(5.766)" fill="#fff"/>
            <path id="패스_240" data-name="패스 240" d="M13.578,15.854v.362a1.81,1.81,0,0,1-1.809,1.809H3.809A1.81,1.81,0,0,1,2,16.216V6.809A1.81,1.81,0,0,1,3.809,5h.282v8.416A2.444,2.444,0,0,0,6.53,15.854Z" transform="translate(0 -1.158)" fill="#fff"/>
          </g>
        </g>
        <g id="full-screen" transform="translate(359.824 851)">
          <path id="패스_250" data-name="패스 250" d="M19.242,17.921a1.324,1.324,0,0,1-1.32-1.32V10h-6.6A1.324,1.324,0,0,0,10,11.32v13.2a1.324,1.324,0,0,0,1.32,1.32h13.2a1.324,1.324,0,0,0,1.32-1.32v-6.6Z" transform="translate(0 0)" fill="#fff"/>
          <path id="패스_251" data-name="패스 251" d="M63.268,15.281V10.66a.659.659,0,0,0-.659-.66H57.987v1.32h3.026l-4.346,4.348.933.934,4.348-4.346v3.026Z" transform="translate(-37.425 0)" fill="#fff"/>
        </g>
      </g>
    </g>
  </g>
</svg>
